G04 #@! TF.GenerationSoftware,KiCad,Pcbnew,6.0.9-8da3e8f707~117~ubuntu22.04.1*
G04 #@! TF.CreationDate,2022-12-19T09:45:41+00:00*
G04 #@! TF.ProjectId,esp32display,65737033-3264-4697-9370-6c61792e6b69,rev?*
G04 #@! TF.SameCoordinates,Original*
G04 #@! TF.FileFunction,Copper,L1,Top*
G04 #@! TF.FilePolarity,Positive*
%FSLAX46Y46*%
G04 Gerber Fmt 4.6, Leading zero omitted, Abs format (unit mm)*
G04 Created by KiCad (PCBNEW 6.0.9-8da3e8f707~117~ubuntu22.04.1) date 2022-12-19 09:45:41*
%MOMM*%
%LPD*%
G01*
G04 APERTURE LIST*
G04 Aperture macros list*
%AMRoundRect*
0 Rectangle with rounded corners*
0 $1 Rounding radius*
0 $2 $3 $4 $5 $6 $7 $8 $9 X,Y pos of 4 corners*
0 Add a 4 corners polygon primitive as box body*
4,1,4,$2,$3,$4,$5,$6,$7,$8,$9,$2,$3,0*
0 Add four circle primitives for the rounded corners*
1,1,$1+$1,$2,$3*
1,1,$1+$1,$4,$5*
1,1,$1+$1,$6,$7*
1,1,$1+$1,$8,$9*
0 Add four rect primitives between the rounded corners*
20,1,$1+$1,$2,$3,$4,$5,0*
20,1,$1+$1,$4,$5,$6,$7,0*
20,1,$1+$1,$6,$7,$8,$9,0*
20,1,$1+$1,$8,$9,$2,$3,0*%
G04 Aperture macros list end*
G04 #@! TA.AperFunction,SMDPad,CuDef*
%ADD10R,1.000000X2.800000*%
G04 #@! TD*
G04 #@! TA.AperFunction,ComponentPad*
%ADD11R,1.700000X1.700000*%
G04 #@! TD*
G04 #@! TA.AperFunction,ComponentPad*
%ADD12O,1.700000X1.700000*%
G04 #@! TD*
G04 #@! TA.AperFunction,SMDPad,CuDef*
%ADD13RoundRect,0.237500X-0.250000X-0.237500X0.250000X-0.237500X0.250000X0.237500X-0.250000X0.237500X0*%
G04 #@! TD*
G04 #@! TA.AperFunction,SMDPad,CuDef*
%ADD14R,3.150000X0.300000*%
G04 #@! TD*
G04 #@! TA.AperFunction,ComponentPad*
%ADD15O,2.100000X1.000000*%
G04 #@! TD*
G04 #@! TA.AperFunction,ComponentPad*
%ADD16O,1.600000X1.000000*%
G04 #@! TD*
G04 #@! TA.AperFunction,SMDPad,CuDef*
%ADD17RoundRect,0.237500X0.237500X-0.250000X0.237500X0.250000X-0.237500X0.250000X-0.237500X-0.250000X0*%
G04 #@! TD*
G04 #@! TA.AperFunction,ComponentPad*
%ADD18RoundRect,1.000000X-3.000000X1.000000X-3.000000X-1.000000X3.000000X-1.000000X3.000000X1.000000X0*%
G04 #@! TD*
G04 #@! TA.AperFunction,SMDPad,CuDef*
%ADD19RoundRect,0.250000X0.650000X-0.325000X0.650000X0.325000X-0.650000X0.325000X-0.650000X-0.325000X0*%
G04 #@! TD*
G04 #@! TA.AperFunction,SMDPad,CuDef*
%ADD20R,2.000000X0.900000*%
G04 #@! TD*
G04 #@! TA.AperFunction,SMDPad,CuDef*
%ADD21R,0.900000X2.000000*%
G04 #@! TD*
G04 #@! TA.AperFunction,SMDPad,CuDef*
%ADD22R,5.000000X5.000000*%
G04 #@! TD*
G04 #@! TA.AperFunction,SMDPad,CuDef*
%ADD23RoundRect,0.225000X-0.225000X-0.250000X0.225000X-0.250000X0.225000X0.250000X-0.225000X0.250000X0*%
G04 #@! TD*
G04 #@! TA.AperFunction,ComponentPad*
%ADD24C,0.800000*%
G04 #@! TD*
G04 #@! TA.AperFunction,ComponentPad*
%ADD25C,6.400000*%
G04 #@! TD*
G04 #@! TA.AperFunction,SMDPad,CuDef*
%ADD26RoundRect,0.237500X0.250000X0.237500X-0.250000X0.237500X-0.250000X-0.237500X0.250000X-0.237500X0*%
G04 #@! TD*
G04 #@! TA.AperFunction,SMDPad,CuDef*
%ADD27R,1.800000X2.500000*%
G04 #@! TD*
G04 #@! TA.AperFunction,ComponentPad*
%ADD28RoundRect,0.250000X-0.600000X-0.600000X0.600000X-0.600000X0.600000X0.600000X-0.600000X0.600000X0*%
G04 #@! TD*
G04 #@! TA.AperFunction,ComponentPad*
%ADD29C,1.700000*%
G04 #@! TD*
G04 #@! TA.AperFunction,SMDPad,CuDef*
%ADD30RoundRect,0.250000X-0.650000X0.325000X-0.650000X-0.325000X0.650000X-0.325000X0.650000X0.325000X0*%
G04 #@! TD*
G04 #@! TA.AperFunction,SMDPad,CuDef*
%ADD31RoundRect,0.237500X-0.237500X0.250000X-0.237500X-0.250000X0.237500X-0.250000X0.237500X0.250000X0*%
G04 #@! TD*
G04 #@! TA.AperFunction,SMDPad,CuDef*
%ADD32R,1.500000X1.000000*%
G04 #@! TD*
G04 #@! TA.AperFunction,SMDPad,CuDef*
%ADD33R,2.000000X1.500000*%
G04 #@! TD*
G04 #@! TA.AperFunction,SMDPad,CuDef*
%ADD34R,2.000000X3.800000*%
G04 #@! TD*
G04 #@! TA.AperFunction,ComponentPad*
%ADD35C,1.500000*%
G04 #@! TD*
G04 #@! TA.AperFunction,SMDPad,CuDef*
%ADD36RoundRect,0.225000X0.250000X-0.225000X0.250000X0.225000X-0.250000X0.225000X-0.250000X-0.225000X0*%
G04 #@! TD*
G04 #@! TA.AperFunction,ViaPad*
%ADD37C,2.000000*%
G04 #@! TD*
G04 #@! TA.AperFunction,ViaPad*
%ADD38C,1.000000*%
G04 #@! TD*
G04 #@! TA.AperFunction,ViaPad*
%ADD39C,0.800000*%
G04 #@! TD*
G04 #@! TA.AperFunction,Conductor*
%ADD40C,0.250000*%
G04 #@! TD*
G04 #@! TA.AperFunction,Conductor*
%ADD41C,1.000000*%
G04 #@! TD*
G04 #@! TA.AperFunction,Conductor*
%ADD42C,2.000000*%
G04 #@! TD*
G04 APERTURE END LIST*
D10*
G04 #@! TO.P,SW3,1,1*
G04 #@! TO.N,GND*
X177000000Y-77600000D03*
X177000000Y-83400000D03*
G04 #@! TO.P,SW3,2,2*
G04 #@! TO.N,BOOT*
X173000000Y-77600000D03*
X173000000Y-83400000D03*
G04 #@! TD*
D11*
G04 #@! TO.P,J8,1,Pin_1*
G04 #@! TO.N,+5V*
X190500000Y-121000000D03*
D12*
G04 #@! TO.P,J8,2,Pin_2*
G04 #@! TO.N,Net-(D3-Pad2)*
X193040000Y-121000000D03*
G04 #@! TO.P,J8,3,Pin_3*
G04 #@! TO.N,GND*
X195580000Y-121000000D03*
G04 #@! TD*
D13*
G04 #@! TO.P,R5,1*
G04 #@! TO.N,+3V3*
X136087500Y-111000000D03*
G04 #@! TO.P,R5,2*
G04 #@! TO.N,BUTTON*
X137912500Y-111000000D03*
G04 #@! TD*
D10*
G04 #@! TO.P,SW1,1,1*
G04 #@! TO.N,GND*
X135000000Y-119900000D03*
X135000000Y-114100000D03*
G04 #@! TO.P,SW1,2,2*
G04 #@! TO.N,BUTTON*
X139000000Y-114100000D03*
X139000000Y-119900000D03*
G04 #@! TD*
D14*
G04 #@! TO.P,J3,A1,GND*
G04 #@! TO.N,GND*
X197980000Y-92400000D03*
G04 #@! TO.P,J3,A4,VBUS*
G04 #@! TO.N,Net-(D1-Pad2)*
X197980000Y-91600000D03*
G04 #@! TO.P,J3,A5,CC1*
G04 #@! TO.N,Net-(J3-PadA5)*
X197980000Y-90300000D03*
G04 #@! TO.P,J3,A6,D+*
G04 #@! TO.N,unconnected-(J3-PadA6)*
X197980000Y-89300000D03*
G04 #@! TO.P,J3,A7,D-*
G04 #@! TO.N,unconnected-(J3-PadA7)*
X197980000Y-88800000D03*
G04 #@! TO.P,J3,A8,SBU1*
G04 #@! TO.N,unconnected-(J3-PadA8)*
X197980000Y-87800000D03*
G04 #@! TO.P,J3,A9,VBUS*
G04 #@! TO.N,Net-(D1-Pad2)*
X197980000Y-86500000D03*
G04 #@! TO.P,J3,A12,GND*
G04 #@! TO.N,GND*
X197980000Y-85700000D03*
G04 #@! TO.P,J3,B1,GND*
X197980000Y-86000000D03*
G04 #@! TO.P,J3,B4,VBUS*
G04 #@! TO.N,Net-(D1-Pad2)*
X197980000Y-86800000D03*
G04 #@! TO.P,J3,B5,CC2*
G04 #@! TO.N,Net-(J3-PadB5)*
X197980000Y-87300000D03*
G04 #@! TO.P,J3,B6,D+*
G04 #@! TO.N,unconnected-(J3-PadB6)*
X197980000Y-88300000D03*
G04 #@! TO.P,J3,B7,D-*
G04 #@! TO.N,unconnected-(J3-PadB7)*
X197980000Y-89800000D03*
G04 #@! TO.P,J3,B8,SBU2*
G04 #@! TO.N,unconnected-(J3-PadB8)*
X197980000Y-90800000D03*
G04 #@! TO.P,J3,B9,VBUS*
G04 #@! TO.N,Net-(D1-Pad2)*
X197980000Y-91300000D03*
G04 #@! TO.P,J3,B12,GND*
G04 #@! TO.N,GND*
X197980000Y-92100000D03*
D15*
G04 #@! TO.P,J3,S1,SHIELD*
X199545000Y-93370000D03*
D16*
X203725000Y-84730000D03*
D15*
X199545000Y-84730000D03*
D16*
X203725000Y-93370000D03*
G04 #@! TD*
D17*
G04 #@! TO.P,R2,1*
G04 #@! TO.N,Net-(J3-PadA5)*
X188500000Y-93912500D03*
G04 #@! TO.P,R2,2*
G04 #@! TO.N,GND*
X188500000Y-92087500D03*
G04 #@! TD*
D11*
G04 #@! TO.P,J6,1,Pin_1*
G04 #@! TO.N,TOUCH1*
X169725000Y-121000000D03*
D12*
G04 #@! TO.P,J6,2,Pin_2*
G04 #@! TO.N,TOUCH2*
X172265000Y-121000000D03*
G04 #@! TD*
D18*
G04 #@! TO.P,J2,1,Pin_1*
G04 #@! TO.N,GND*
X202000000Y-107460000D03*
G04 #@! TO.P,J2,2,Pin_2*
G04 #@! TO.N,+5V*
X202000000Y-112540000D03*
G04 #@! TD*
D19*
G04 #@! TO.P,C3,1*
G04 #@! TO.N,+3V3*
X140000000Y-91475000D03*
G04 #@! TO.P,C3,2*
G04 #@! TO.N,GND*
X140000000Y-88525000D03*
G04 #@! TD*
D20*
G04 #@! TO.P,U2,1,GND*
G04 #@! TO.N,GND*
X147500000Y-88495000D03*
G04 #@! TO.P,U2,2,VDD*
G04 #@! TO.N,+3V3*
X147500000Y-89765000D03*
G04 #@! TO.P,U2,3,EN*
G04 #@! TO.N,RESET*
X147500000Y-91035000D03*
G04 #@! TO.P,U2,4,SENSOR_VP*
G04 #@! TO.N,unconnected-(U2-Pad4)*
X147500000Y-92305000D03*
G04 #@! TO.P,U2,5,SENSOR_VN*
G04 #@! TO.N,unconnected-(U2-Pad5)*
X147500000Y-93575000D03*
G04 #@! TO.P,U2,6,IO34*
G04 #@! TO.N,BUTTON*
X147500000Y-94845000D03*
G04 #@! TO.P,U2,7,IO35*
G04 #@! TO.N,LIGHT*
X147500000Y-96115000D03*
G04 #@! TO.P,U2,8,IO32*
G04 #@! TO.N,LAT*
X147500000Y-97385000D03*
G04 #@! TO.P,U2,9,IO33*
G04 #@! TO.N,OE*
X147500000Y-98655000D03*
G04 #@! TO.P,U2,10,IO25*
G04 #@! TO.N,R1*
X147500000Y-99925000D03*
G04 #@! TO.P,U2,11,IO26*
G04 #@! TO.N,G1*
X147500000Y-101195000D03*
G04 #@! TO.P,U2,12,IO27*
G04 #@! TO.N,B1*
X147500000Y-102465000D03*
G04 #@! TO.P,U2,13,IO14*
G04 #@! TO.N,R2*
X147500000Y-103735000D03*
G04 #@! TO.P,U2,14,IO12*
G04 #@! TO.N,G2*
X147500000Y-105005000D03*
D21*
G04 #@! TO.P,U2,15,GND*
G04 #@! TO.N,GND*
X150285000Y-106005000D03*
G04 #@! TO.P,U2,16,IO13*
G04 #@! TO.N,B2*
X151555000Y-106005000D03*
G04 #@! TO.P,U2,17,SHD/SD2*
G04 #@! TO.N,unconnected-(U2-Pad17)*
X152825000Y-106005000D03*
G04 #@! TO.P,U2,18,SWP/SD3*
G04 #@! TO.N,unconnected-(U2-Pad18)*
X154095000Y-106005000D03*
G04 #@! TO.P,U2,19,SCS/CMD*
G04 #@! TO.N,unconnected-(U2-Pad19)*
X155365000Y-106005000D03*
G04 #@! TO.P,U2,20,SCK/CLK*
G04 #@! TO.N,unconnected-(U2-Pad20)*
X156635000Y-106005000D03*
G04 #@! TO.P,U2,21,SDO/SD0*
G04 #@! TO.N,unconnected-(U2-Pad21)*
X157905000Y-106005000D03*
G04 #@! TO.P,U2,22,SDI/SD1*
G04 #@! TO.N,unconnected-(U2-Pad22)*
X159175000Y-106005000D03*
G04 #@! TO.P,U2,23,IO15*
G04 #@! TO.N,A*
X160445000Y-106005000D03*
G04 #@! TO.P,U2,24,IO2*
G04 #@! TO.N,TOUCH1*
X161715000Y-106005000D03*
D20*
G04 #@! TO.P,U2,25,IO0*
G04 #@! TO.N,BOOT*
X164500000Y-105005000D03*
G04 #@! TO.P,U2,26,IO4*
G04 #@! TO.N,TOUCH2*
X164500000Y-103735000D03*
G04 #@! TO.P,U2,27,IO16*
G04 #@! TO.N,D*
X164500000Y-102465000D03*
G04 #@! TO.P,U2,28,IO17*
G04 #@! TO.N,C*
X164500000Y-101195000D03*
G04 #@! TO.P,U2,29,IO5*
G04 #@! TO.N,NPX1*
X164500000Y-99925000D03*
G04 #@! TO.P,U2,30,IO18*
G04 #@! TO.N,B*
X164500000Y-98655000D03*
G04 #@! TO.P,U2,31,IO19*
G04 #@! TO.N,CLK*
X164500000Y-97385000D03*
G04 #@! TO.P,U2,32,NC*
G04 #@! TO.N,unconnected-(U2-Pad32)*
X164500000Y-96115000D03*
G04 #@! TO.P,U2,33,IO21*
G04 #@! TO.N,SDA*
X164500000Y-94845000D03*
G04 #@! TO.P,U2,34,RXD0/IO3*
G04 #@! TO.N,RXDI_PROG*
X164500000Y-93575000D03*
G04 #@! TO.P,U2,35,TXD0/IO1*
G04 #@! TO.N,TXDO_PROG*
X164500000Y-92305000D03*
G04 #@! TO.P,U2,36,IO22*
G04 #@! TO.N,SCL*
X164500000Y-91035000D03*
G04 #@! TO.P,U2,37,IO23*
G04 #@! TO.N,NPX2*
X164500000Y-89765000D03*
G04 #@! TO.P,U2,38,GND*
G04 #@! TO.N,GND*
X164500000Y-88495000D03*
D22*
G04 #@! TO.P,U2,39,GND*
X155000000Y-95995000D03*
G04 #@! TD*
D23*
G04 #@! TO.P,C5,1*
G04 #@! TO.N,RESET*
X136225000Y-86500000D03*
G04 #@! TO.P,C5,2*
G04 #@! TO.N,GND*
X137775000Y-86500000D03*
G04 #@! TD*
D11*
G04 #@! TO.P,J4,1,Pin_1*
G04 #@! TO.N,+3V3*
X148340000Y-121000000D03*
D12*
G04 #@! TO.P,J4,2,Pin_2*
X150880000Y-121000000D03*
G04 #@! TO.P,J4,3,Pin_3*
G04 #@! TO.N,GND*
X153420000Y-121000000D03*
G04 #@! TO.P,J4,4,Pin_4*
G04 #@! TO.N,SCL*
X155960000Y-121000000D03*
G04 #@! TO.P,J4,5,Pin_5*
G04 #@! TO.N,SDA*
X158500000Y-121000000D03*
G04 #@! TO.P,J4,6,Pin_6*
G04 #@! TO.N,unconnected-(J4-Pad6)*
X161040000Y-121000000D03*
G04 #@! TD*
D11*
G04 #@! TO.P,J9,1,Pin_1*
G04 #@! TO.N,+3V3*
X182650000Y-78000000D03*
D12*
G04 #@! TO.P,J9,2,Pin_2*
G04 #@! TO.N,GND*
X185190000Y-78000000D03*
G04 #@! TO.P,J9,3,Pin_3*
G04 #@! TO.N,TXDO_PROG*
X187730000Y-78000000D03*
G04 #@! TO.P,J9,4,Pin_4*
G04 #@! TO.N,RXDI_PROG*
X190270000Y-78000000D03*
G04 #@! TO.P,J9,5,Pin_5*
G04 #@! TO.N,RESET*
X192810000Y-78000000D03*
G04 #@! TO.P,J9,6,Pin_6*
G04 #@! TO.N,BOOT*
X195350000Y-78000000D03*
G04 #@! TD*
D24*
G04 #@! TO.P,REF\u002A\u002A,1*
G04 #@! TO.N,N/C*
X203197056Y-117302944D03*
X199802944Y-117302944D03*
X199802944Y-120697056D03*
X201500000Y-121400000D03*
X203197056Y-120697056D03*
X201500000Y-116600000D03*
X203900000Y-119000000D03*
X199100000Y-119000000D03*
D25*
X201500000Y-119000000D03*
G04 #@! TD*
D26*
G04 #@! TO.P,R3,1*
G04 #@! TO.N,+3V3*
X137912500Y-102500000D03*
G04 #@! TO.P,R3,2*
G04 #@! TO.N,LIGHT*
X136087500Y-102500000D03*
G04 #@! TD*
D27*
G04 #@! TO.P,D1,1,K*
G04 #@! TO.N,+5V*
X185500000Y-89000000D03*
G04 #@! TO.P,D1,2,A*
G04 #@! TO.N,Net-(D1-Pad2)*
X185500000Y-93000000D03*
G04 #@! TD*
D28*
G04 #@! TO.P,J5,1,Pin_1*
G04 #@! TO.N,R1*
X126247500Y-89610000D03*
D29*
G04 #@! TO.P,J5,2,Pin_2*
G04 #@! TO.N,G1*
X128787500Y-89610000D03*
G04 #@! TO.P,J5,3,Pin_3*
G04 #@! TO.N,B1*
X126247500Y-92150000D03*
G04 #@! TO.P,J5,4,Pin_4*
G04 #@! TO.N,GND*
X128787500Y-92150000D03*
G04 #@! TO.P,J5,5,Pin_5*
G04 #@! TO.N,R2*
X126247500Y-94690000D03*
G04 #@! TO.P,J5,6,Pin_6*
G04 #@! TO.N,G2*
X128787500Y-94690000D03*
G04 #@! TO.P,J5,7,Pin_7*
G04 #@! TO.N,B2*
X126247500Y-97230000D03*
G04 #@! TO.P,J5,8,Pin_8*
G04 #@! TO.N,GND*
X128787500Y-97230000D03*
G04 #@! TO.P,J5,9,Pin_9*
G04 #@! TO.N,A*
X126247500Y-99770000D03*
G04 #@! TO.P,J5,10,Pin_10*
G04 #@! TO.N,B*
X128787500Y-99770000D03*
G04 #@! TO.P,J5,11,Pin_11*
G04 #@! TO.N,C*
X126247500Y-102310000D03*
G04 #@! TO.P,J5,12,Pin_12*
G04 #@! TO.N,D*
X128787500Y-102310000D03*
G04 #@! TO.P,J5,13,Pin_13*
G04 #@! TO.N,CLK*
X126247500Y-104850000D03*
G04 #@! TO.P,J5,14,Pin_14*
G04 #@! TO.N,LAT*
X128787500Y-104850000D03*
G04 #@! TO.P,J5,15,Pin_15*
G04 #@! TO.N,OE*
X126247500Y-107390000D03*
G04 #@! TO.P,J5,16,Pin_16*
G04 #@! TO.N,GND*
X128787500Y-107390000D03*
G04 #@! TD*
D30*
G04 #@! TO.P,C1,1*
G04 #@! TO.N,+5V*
X182000000Y-87525000D03*
G04 #@! TO.P,C1,2*
G04 #@! TO.N,GND*
X182000000Y-90475000D03*
G04 #@! TD*
D31*
G04 #@! TO.P,R6,1*
G04 #@! TO.N,RESET*
X134412000Y-88804500D03*
G04 #@! TO.P,R6,2*
G04 #@! TO.N,+3V3*
X134412000Y-90629500D03*
G04 #@! TD*
D32*
G04 #@! TO.P,D2,1,VDD*
G04 #@! TO.N,+5V*
X180550000Y-112900000D03*
G04 #@! TO.P,D2,2,DOUT*
G04 #@! TO.N,Net-(D2-Pad2)*
X180550000Y-116100000D03*
G04 #@! TO.P,D2,3,VSS*
G04 #@! TO.N,GND*
X185450000Y-116100000D03*
G04 #@! TO.P,D2,4,DIN*
G04 #@! TO.N,NPX1*
X185450000Y-112900000D03*
G04 #@! TD*
G04 #@! TO.P,D3,1,VDD*
G04 #@! TO.N,+5V*
X190550000Y-112900000D03*
G04 #@! TO.P,D3,2,DOUT*
G04 #@! TO.N,Net-(D3-Pad2)*
X190550000Y-116100000D03*
G04 #@! TO.P,D3,3,VSS*
G04 #@! TO.N,GND*
X195450000Y-116100000D03*
G04 #@! TO.P,D3,4,DIN*
G04 #@! TO.N,NPX2*
X195450000Y-112900000D03*
G04 #@! TD*
D33*
G04 #@! TO.P,U1,1,GND*
G04 #@! TO.N,GND*
X179150000Y-93800000D03*
G04 #@! TO.P,U1,2,VO*
G04 #@! TO.N,+3V3*
X179150000Y-91500000D03*
D34*
X172850000Y-91500000D03*
D33*
G04 #@! TO.P,U1,3,VI*
G04 #@! TO.N,+5V*
X179150000Y-89200000D03*
G04 #@! TD*
D24*
G04 #@! TO.P,REF\u002A\u002A,1*
G04 #@! TO.N,N/C*
X203900000Y-79000000D03*
X201500000Y-76600000D03*
X199802944Y-80697056D03*
X201500000Y-81400000D03*
X203197056Y-77302944D03*
X203197056Y-80697056D03*
D25*
X201500000Y-79000000D03*
D24*
X199100000Y-79000000D03*
X199802944Y-77302944D03*
G04 #@! TD*
D11*
G04 #@! TO.P,J7,1,Pin_1*
G04 #@! TO.N,+5V*
X180475000Y-121000000D03*
D12*
G04 #@! TO.P,J7,2,Pin_2*
G04 #@! TO.N,Net-(D2-Pad2)*
X183015000Y-121000000D03*
G04 #@! TO.P,J7,3,Pin_3*
G04 #@! TO.N,GND*
X185555000Y-121000000D03*
G04 #@! TD*
D18*
G04 #@! TO.P,J1,1,Pin_1*
G04 #@! TO.N,GND*
X202000000Y-96920000D03*
G04 #@! TO.P,J1,2,Pin_2*
G04 #@! TO.N,+5V*
X202000000Y-102000000D03*
G04 #@! TD*
D35*
G04 #@! TO.P,R4,1*
G04 #@! TO.N,LIGHT*
X135300000Y-106500000D03*
G04 #@! TO.P,R4,2*
G04 #@! TO.N,GND*
X138700000Y-106500000D03*
G04 #@! TD*
D31*
G04 #@! TO.P,R1,1*
G04 #@! TO.N,Net-(J3-PadB5)*
X188500000Y-88087500D03*
G04 #@! TO.P,R1,2*
G04 #@! TO.N,GND*
X188500000Y-89912500D03*
G04 #@! TD*
D24*
G04 #@! TO.P,REF\u002A\u002A,1*
G04 #@! TO.N,N/C*
X126500000Y-81400000D03*
X124802944Y-77302944D03*
X128197056Y-80697056D03*
X124100000Y-79000000D03*
D25*
X126500000Y-79000000D03*
D24*
X126500000Y-76600000D03*
X128197056Y-77302944D03*
X128900000Y-79000000D03*
X124802944Y-80697056D03*
G04 #@! TD*
D10*
G04 #@! TO.P,SW2,1,1*
G04 #@! TO.N,GND*
X139000000Y-77600000D03*
X139000000Y-83400000D03*
G04 #@! TO.P,SW2,2,2*
G04 #@! TO.N,RESET*
X135000000Y-83400000D03*
X135000000Y-77600000D03*
G04 #@! TD*
D36*
G04 #@! TO.P,C4,1*
G04 #@! TO.N,+3V3*
X136952000Y-90583000D03*
G04 #@! TO.P,C4,2*
G04 #@! TO.N,GND*
X136952000Y-89033000D03*
G04 #@! TD*
D19*
G04 #@! TO.P,C2,1*
G04 #@! TO.N,+3V3*
X182000000Y-95475000D03*
G04 #@! TO.P,C2,2*
G04 #@! TO.N,GND*
X182000000Y-92525000D03*
G04 #@! TD*
D24*
G04 #@! TO.P,REF\u002A\u002A,1*
G04 #@! TO.N,N/C*
X128197056Y-117302944D03*
X124100000Y-119000000D03*
X126500000Y-121400000D03*
X126500000Y-116600000D03*
D25*
X126500000Y-119000000D03*
D24*
X124802944Y-120697056D03*
X128900000Y-119000000D03*
X128197056Y-120697056D03*
X124802944Y-117302944D03*
G04 #@! TD*
D37*
G04 #@! TO.N,+5V*
X185500000Y-86500000D03*
D38*
G04 #@! TO.N,GND*
X183000000Y-89000000D03*
D39*
X145500000Y-88500000D03*
X149870707Y-106605500D03*
D38*
X188500000Y-91000000D03*
X175824500Y-83000000D03*
X175824500Y-78000000D03*
D39*
X161000000Y-89000000D03*
G04 #@! TO.N,+3V3*
X137000000Y-112500000D03*
X139000000Y-103500000D03*
D37*
X170500000Y-91500000D03*
D39*
X135629500Y-90629500D03*
G04 #@! TO.N,Net-(D1-Pad2)*
X195650000Y-91400000D03*
X195658847Y-86575500D03*
G04 #@! TO.N,NPX2*
X166500000Y-90000000D03*
X167000000Y-92500000D03*
G04 #@! TO.N,SDA*
X162500000Y-95500000D03*
G04 #@! TO.N,SCL*
X162500000Y-94000000D03*
G04 #@! TO.N,B*
X152000000Y-92500000D03*
G04 #@! TO.N,C*
X151000000Y-93500000D03*
G04 #@! TO.N,D*
X150500000Y-94500000D03*
G04 #@! TO.N,CLK*
X160500000Y-91000000D03*
G04 #@! TO.N,LAT*
X141500000Y-97500000D03*
G04 #@! TO.N,OE*
X142500000Y-98500000D03*
G04 #@! TO.N,BOOT*
X174261880Y-84325999D03*
X165995201Y-105004799D03*
G04 #@! TO.N,LIGHT*
X146500000Y-106054502D03*
G04 #@! TO.N,BUTTON*
X148500000Y-107000000D03*
X140500000Y-107500000D03*
G04 #@! TD*
D40*
G04 #@! TO.N,+5V*
X180475000Y-121000000D02*
X179475000Y-120000000D01*
D41*
X182000000Y-87525000D02*
X184475000Y-87525000D01*
D40*
X179475000Y-113975000D02*
X180550000Y-112900000D01*
X190500000Y-121000000D02*
X189475000Y-119975000D01*
D41*
X179150000Y-89200000D02*
X180325000Y-89200000D01*
X180325000Y-89200000D02*
X182000000Y-87525000D01*
D42*
X185500000Y-89000000D02*
X185500000Y-86500000D01*
D40*
X179475000Y-120000000D02*
X179475000Y-113975000D01*
X189475000Y-113975000D02*
X190550000Y-112900000D01*
D41*
X184475000Y-87525000D02*
X185500000Y-86500000D01*
D40*
X189475000Y-119975000D02*
X189475000Y-113975000D01*
D41*
G04 #@! TO.N,GND*
X188500000Y-89912500D02*
X188500000Y-91000000D01*
X176224500Y-83400000D02*
X175824500Y-83000000D01*
X182000000Y-90475000D02*
X182000000Y-90000000D01*
D40*
X195450000Y-116100000D02*
X195450000Y-120251701D01*
D41*
X177000000Y-83400000D02*
X176224500Y-83400000D01*
X182000000Y-92525000D02*
X182000000Y-90475000D01*
D40*
X135000000Y-119900000D02*
X135000000Y-114100000D01*
X145500000Y-88500000D02*
X140025000Y-88500000D01*
X135000000Y-110200000D02*
X138700000Y-106500000D01*
X140000000Y-88525000D02*
X139800000Y-88525000D01*
X137775000Y-86500000D02*
X139000000Y-85275000D01*
X150285000Y-106005000D02*
X150285000Y-106191207D01*
X185450000Y-116100000D02*
X185450000Y-120895000D01*
X161505000Y-88495000D02*
X161000000Y-89000000D01*
X155000000Y-95000000D02*
X155000000Y-95995000D01*
D41*
X199545000Y-93370000D02*
X198950000Y-93370000D01*
D40*
X185450000Y-120895000D02*
X185555000Y-121000000D01*
X139492000Y-89033000D02*
X136952000Y-89033000D01*
X139000000Y-85275000D02*
X139000000Y-83400000D01*
D41*
X198950000Y-93370000D02*
X198029500Y-92449500D01*
D40*
X139000000Y-83400000D02*
X139000000Y-77600000D01*
X164500000Y-88495000D02*
X161505000Y-88495000D01*
D41*
X198950000Y-84730000D02*
X198029500Y-85650500D01*
D40*
X150285000Y-106191207D02*
X149870707Y-106605500D01*
X139800000Y-88525000D02*
X137775000Y-86500000D01*
D41*
X199545000Y-84730000D02*
X198950000Y-84730000D01*
D40*
X135000000Y-114100000D02*
X135000000Y-110200000D01*
D41*
X179150000Y-93800000D02*
X180725000Y-93800000D01*
X176224500Y-77600000D02*
X175824500Y-78000000D01*
X182000000Y-90000000D02*
X183000000Y-89000000D01*
X177000000Y-77600000D02*
X176224500Y-77600000D01*
D40*
X145505000Y-88495000D02*
X145500000Y-88500000D01*
X147500000Y-88495000D02*
X145505000Y-88495000D01*
D41*
X180725000Y-93800000D02*
X182000000Y-92525000D01*
D40*
X140000000Y-88525000D02*
X139492000Y-89033000D01*
D41*
X188500000Y-92087500D02*
X188500000Y-91000000D01*
D40*
X161000000Y-89000000D02*
X155000000Y-95000000D01*
X195450000Y-120251701D02*
X195580000Y-120381701D01*
X195580000Y-120381701D02*
X195580000Y-121000000D01*
X140025000Y-88500000D02*
X140000000Y-88525000D01*
D42*
G04 #@! TO.N,+3V3*
X172850000Y-91500000D02*
X177100000Y-95750000D01*
X177100000Y-95750000D02*
X181725000Y-95750000D01*
D40*
X137844000Y-91475000D02*
X136952000Y-90583000D01*
X137844000Y-91475000D02*
X140000000Y-91475000D01*
X140000000Y-91475000D02*
X141710000Y-89765000D01*
X138000000Y-102500000D02*
X139000000Y-103500000D01*
X141710000Y-89765000D02*
X147500000Y-89765000D01*
X135676000Y-90583000D02*
X135629500Y-90629500D01*
X136087500Y-111000000D02*
X136087500Y-111587500D01*
X136952000Y-90583000D02*
X135676000Y-90583000D01*
D42*
X172850000Y-91500000D02*
X179150000Y-91500000D01*
X181725000Y-95750000D02*
X182000000Y-95475000D01*
D40*
X137912500Y-102500000D02*
X138000000Y-102500000D01*
X136087500Y-111587500D02*
X137000000Y-112500000D01*
X134412000Y-90629500D02*
X135629500Y-90629500D01*
D42*
X172850000Y-91500000D02*
X170500000Y-91500000D01*
D40*
G04 #@! TO.N,RESET*
X171144310Y-87720000D02*
X152065000Y-87720000D01*
X141500000Y-92500000D02*
X142965000Y-91035000D01*
X135000000Y-83400000D02*
X135000000Y-85275000D01*
X142965000Y-91035000D02*
X147500000Y-91035000D01*
X175000000Y-84864310D02*
X174813811Y-85050499D01*
X133612000Y-89604500D02*
X133612000Y-91112495D01*
X190310000Y-75500000D02*
X176550000Y-75500000D01*
X176550000Y-75500000D02*
X175000000Y-77050000D01*
X133612000Y-91112495D02*
X134999505Y-92500000D01*
X152065000Y-87720000D02*
X148750000Y-91035000D01*
X134412000Y-88804500D02*
X133612000Y-89604500D01*
X173813811Y-85050499D02*
X171144310Y-87720000D01*
X136225000Y-86500000D02*
X136225000Y-86991500D01*
X135000000Y-77600000D02*
X135000000Y-83400000D01*
X148750000Y-91035000D02*
X147500000Y-91035000D01*
X174813811Y-85050499D02*
X173813811Y-85050499D01*
X134999505Y-92500000D02*
X141500000Y-92500000D01*
X135000000Y-85275000D02*
X136225000Y-86500000D01*
X175000000Y-77050000D02*
X175000000Y-84864310D01*
X192810000Y-78000000D02*
X190310000Y-75500000D01*
X136225000Y-86991500D02*
X134412000Y-88804500D01*
D41*
G04 #@! TO.N,Net-(D1-Pad2)*
X194600000Y-91400000D02*
X195650000Y-91400000D01*
D40*
X197980000Y-91600000D02*
X195850000Y-91600000D01*
X197980000Y-91300000D02*
X195750000Y-91300000D01*
D41*
X185500000Y-93000000D02*
X187600000Y-95100000D01*
X190900000Y-95100000D02*
X194600000Y-91400000D01*
D40*
X195883347Y-86800000D02*
X195658847Y-86575500D01*
D41*
X187600000Y-95100000D02*
X190900000Y-95100000D01*
D40*
X197980000Y-86800000D02*
X195883347Y-86800000D01*
X197980000Y-86500000D02*
X195734347Y-86500000D01*
X195724500Y-86575500D02*
X195658847Y-86575500D01*
X195750000Y-91300000D02*
X195650000Y-91400000D01*
X195850000Y-91600000D02*
X195650000Y-91400000D01*
X195800000Y-91250000D02*
X195650000Y-91400000D01*
G04 #@! TO.N,Net-(D2-Pad2)*
X180550000Y-116100000D02*
X180550000Y-118535000D01*
X180550000Y-118535000D02*
X183015000Y-121000000D01*
G04 #@! TO.N,NPX1*
X164500000Y-99925000D02*
X172475000Y-99925000D01*
X172475000Y-99925000D02*
X185450000Y-112900000D01*
G04 #@! TO.N,Net-(D3-Pad2)*
X190550000Y-116100000D02*
X190550000Y-118510000D01*
X190550000Y-118510000D02*
X193040000Y-121000000D01*
G04 #@! TO.N,NPX2*
X186575000Y-112075000D02*
X194625000Y-112075000D01*
X167000000Y-92500000D02*
X186575000Y-112075000D01*
X194625000Y-112075000D02*
X195450000Y-112900000D01*
X164500000Y-89765000D02*
X166265000Y-89765000D01*
X166265000Y-89765000D02*
X166500000Y-90000000D01*
G04 #@! TO.N,Net-(J3-PadA5)*
X188500000Y-93912500D02*
X190187500Y-93912500D01*
X190187500Y-93912500D02*
X193800000Y-90300000D01*
X193800000Y-90300000D02*
X197980000Y-90300000D01*
G04 #@! TO.N,Net-(J3-PadB5)*
X188500000Y-87850000D02*
X189050000Y-87300000D01*
X188500000Y-88087500D02*
X188500000Y-87850000D01*
X189050000Y-87300000D02*
X197980000Y-87300000D01*
G04 #@! TO.N,SDA*
X163155000Y-94845000D02*
X162500000Y-95500000D01*
X164500000Y-94845000D02*
X163155000Y-94845000D01*
G04 #@! TO.N,SCL*
X164500000Y-91035000D02*
X163250000Y-91035000D01*
X162500000Y-91785000D02*
X162500000Y-94000000D01*
X163250000Y-91035000D02*
X162500000Y-91785000D01*
G04 #@! TO.N,R1*
X130298815Y-88435000D02*
X127422500Y-88435000D01*
X147500000Y-99925000D02*
X141788815Y-99925000D01*
X127422500Y-88435000D02*
X126247500Y-89610000D01*
X141788815Y-99925000D02*
X130298815Y-88435000D01*
G04 #@! TO.N,G1*
X147500000Y-101195000D02*
X142373450Y-101195000D01*
X130788450Y-89610000D02*
X128787500Y-89610000D01*
X142373450Y-101195000D02*
X130788450Y-89610000D01*
G04 #@! TO.N,B1*
X143007760Y-102465000D02*
X131517760Y-90975000D01*
X131517760Y-90975000D02*
X127422500Y-90975000D01*
X127422500Y-90975000D02*
X126247500Y-92150000D01*
X147500000Y-102465000D02*
X143007760Y-102465000D01*
G04 #@! TO.N,R2*
X143642070Y-103735000D02*
X133422070Y-93515000D01*
X147500000Y-103735000D02*
X143642070Y-103735000D01*
X127422500Y-93515000D02*
X126247500Y-94690000D01*
X133422070Y-93515000D02*
X127422500Y-93515000D01*
G04 #@! TO.N,G2*
X147500000Y-105005000D02*
X144276380Y-105005000D01*
X144276380Y-105005000D02*
X133961380Y-94690000D01*
X133961380Y-94690000D02*
X128787500Y-94690000D01*
G04 #@! TO.N,B2*
X146360190Y-107724500D02*
X134690690Y-96055000D01*
X151085500Y-107724500D02*
X146360190Y-107724500D01*
X127422500Y-96055000D02*
X126247500Y-97230000D01*
X151555000Y-106005000D02*
X151555000Y-107255000D01*
X151555000Y-107255000D02*
X151085500Y-107724500D01*
X134690690Y-96055000D02*
X127422500Y-96055000D01*
G04 #@! TO.N,A*
X146174001Y-108174001D02*
X136500000Y-98500000D01*
X160445000Y-107255000D02*
X159525999Y-108174001D01*
X159525999Y-108174001D02*
X146174001Y-108174001D01*
X127517500Y-98500000D02*
X126247500Y-99770000D01*
X136500000Y-98500000D02*
X127517500Y-98500000D01*
X160445000Y-106005000D02*
X160445000Y-107255000D01*
G04 #@! TO.N,B*
X152175000Y-98820000D02*
X152000000Y-98645000D01*
X152000000Y-98645000D02*
X152000000Y-92500000D01*
X164500000Y-98655000D02*
X164335000Y-98820000D01*
X164335000Y-98820000D02*
X152175000Y-98820000D01*
G04 #@! TO.N,C*
X151500000Y-98780690D02*
X151500000Y-98500000D01*
X151500000Y-94000000D02*
X151000000Y-93500000D01*
X153914310Y-101195000D02*
X151500000Y-98780690D01*
X151500000Y-98500000D02*
X151500000Y-94000000D01*
X164500000Y-101195000D02*
X153914310Y-101195000D01*
G04 #@! TO.N,D*
X150500000Y-98417086D02*
X150500000Y-94500000D01*
X154547914Y-102465000D02*
X150500000Y-98417086D01*
X164500000Y-102465000D02*
X154547914Y-102465000D01*
G04 #@! TO.N,CLK*
X164500000Y-97385000D02*
X163250000Y-97385000D01*
X163250000Y-97385000D02*
X160500000Y-94635000D01*
X160500000Y-94635000D02*
X160500000Y-91000000D01*
G04 #@! TO.N,LAT*
X147500000Y-97385000D02*
X141615000Y-97385000D01*
X141615000Y-97385000D02*
X141500000Y-97500000D01*
G04 #@! TO.N,OE*
X142655000Y-98655000D02*
X142500000Y-98500000D01*
X147500000Y-98655000D02*
X142655000Y-98655000D01*
G04 #@! TO.N,TOUCH1*
X161715000Y-112990000D02*
X169725000Y-121000000D01*
X161715000Y-106005000D02*
X161715000Y-112990000D01*
G04 #@! TO.N,TOUCH2*
X172265000Y-110250000D02*
X172265000Y-121000000D01*
X164500000Y-103735000D02*
X165750000Y-103735000D01*
X165750000Y-103735000D02*
X172265000Y-110250000D01*
G04 #@! TO.N,TXDO_PROG*
X187730000Y-78000000D02*
X180179501Y-85550499D01*
X165534712Y-92305000D02*
X164500000Y-92305000D01*
X168289213Y-89550499D02*
X165534712Y-92305000D01*
X180179501Y-85550499D02*
X174035191Y-85550499D01*
X170035191Y-89550499D02*
X168289213Y-89550499D01*
X174035191Y-85550499D02*
X170035191Y-89550499D01*
G04 #@! TO.N,RXDI_PROG*
X165750000Y-93575000D02*
X164500000Y-93575000D01*
X166275500Y-92199902D02*
X166275500Y-93049500D01*
X168475402Y-90000000D02*
X166275500Y-92199902D01*
X170221380Y-90000000D02*
X168475402Y-90000000D01*
X174221380Y-86000000D02*
X170221380Y-90000000D01*
X166275500Y-93049500D02*
X165750000Y-93575000D01*
X190270000Y-78000000D02*
X182270000Y-86000000D01*
X182270000Y-86000000D02*
X174221380Y-86000000D01*
G04 #@! TO.N,BOOT*
X173000000Y-77600000D02*
X173000000Y-77500000D01*
X173335881Y-83400000D02*
X174261880Y-84325999D01*
X173000000Y-83400000D02*
X173335881Y-83400000D01*
X192350000Y-75000000D02*
X195350000Y-78000000D01*
X175500000Y-75000000D02*
X192350000Y-75000000D01*
X164500000Y-105005000D02*
X165995000Y-105005000D01*
X173000000Y-77500000D02*
X175500000Y-75000000D01*
X165995000Y-105005000D02*
X165995201Y-105004799D01*
X173000000Y-83400000D02*
X173000000Y-77600000D01*
G04 #@! TO.N,LIGHT*
X136087500Y-105712500D02*
X135300000Y-106500000D01*
X147500000Y-96115000D02*
X147995000Y-96610000D01*
X146504003Y-106050499D02*
X146500000Y-106054502D01*
X148554501Y-106050499D02*
X146504003Y-106050499D01*
X148825000Y-105780000D02*
X148554501Y-106050499D01*
X148825000Y-96610000D02*
X148825000Y-105780000D01*
X136087500Y-102500000D02*
X136087500Y-105712500D01*
X147995000Y-96610000D02*
X148825000Y-96610000D01*
G04 #@! TO.N,BUTTON*
X148825000Y-96160499D02*
X149011189Y-96160499D01*
X148330000Y-94845000D02*
X148825000Y-95340000D01*
X147500000Y-94845000D02*
X148330000Y-94845000D01*
X139000000Y-114100000D02*
X139000000Y-119900000D01*
X140500000Y-107500000D02*
X140500000Y-108412500D01*
X139000000Y-112087500D02*
X139000000Y-114100000D01*
X148500000Y-106740690D02*
X148500000Y-107000000D01*
X137912500Y-111000000D02*
X139000000Y-112087500D01*
X149274501Y-105966189D02*
X148500000Y-106740690D01*
X149011189Y-96160499D02*
X149274501Y-96423811D01*
X149274501Y-96423811D02*
X149274501Y-105966189D01*
X148825000Y-95340000D02*
X148825000Y-96160499D01*
X140500000Y-108412500D02*
X137912500Y-111000000D01*
G04 #@! TD*
M02*
