G04 #@! TF.GenerationSoftware,KiCad,Pcbnew,6.0.9-8da3e8f707~117~ubuntu22.04.1*
G04 #@! TF.CreationDate,2022-12-19T09:45:41+00:00*
G04 #@! TF.ProjectId,esp32display,65737033-3264-4697-9370-6c61792e6b69,rev?*
G04 #@! TF.SameCoordinates,Original*
G04 #@! TF.FileFunction,Paste,Top*
G04 #@! TF.FilePolarity,Positive*
%FSLAX46Y46*%
G04 Gerber Fmt 4.6, Leading zero omitted, Abs format (unit mm)*
G04 Created by KiCad (PCBNEW 6.0.9-8da3e8f707~117~ubuntu22.04.1) date 2022-12-19 09:45:41*
%MOMM*%
%LPD*%
G01*
G04 APERTURE LIST*
G04 Aperture macros list*
%AMRoundRect*
0 Rectangle with rounded corners*
0 $1 Rounding radius*
0 $2 $3 $4 $5 $6 $7 $8 $9 X,Y pos of 4 corners*
0 Add a 4 corners polygon primitive as box body*
4,1,4,$2,$3,$4,$5,$6,$7,$8,$9,$2,$3,0*
0 Add four circle primitives for the rounded corners*
1,1,$1+$1,$2,$3*
1,1,$1+$1,$4,$5*
1,1,$1+$1,$6,$7*
1,1,$1+$1,$8,$9*
0 Add four rect primitives between the rounded corners*
20,1,$1+$1,$2,$3,$4,$5,0*
20,1,$1+$1,$4,$5,$6,$7,0*
20,1,$1+$1,$6,$7,$8,$9,0*
20,1,$1+$1,$8,$9,$2,$3,0*%
G04 Aperture macros list end*
%ADD10R,1.000000X2.800000*%
%ADD11RoundRect,0.237500X-0.250000X-0.237500X0.250000X-0.237500X0.250000X0.237500X-0.250000X0.237500X0*%
%ADD12R,3.150000X0.300000*%
%ADD13RoundRect,0.237500X0.237500X-0.250000X0.237500X0.250000X-0.237500X0.250000X-0.237500X-0.250000X0*%
%ADD14RoundRect,0.250000X0.650000X-0.325000X0.650000X0.325000X-0.650000X0.325000X-0.650000X-0.325000X0*%
%ADD15R,2.000000X0.900000*%
%ADD16R,0.900000X2.000000*%
%ADD17R,5.000000X5.000000*%
%ADD18RoundRect,0.225000X-0.225000X-0.250000X0.225000X-0.250000X0.225000X0.250000X-0.225000X0.250000X0*%
%ADD19RoundRect,0.237500X0.250000X0.237500X-0.250000X0.237500X-0.250000X-0.237500X0.250000X-0.237500X0*%
%ADD20R,1.800000X2.500000*%
%ADD21RoundRect,0.250000X-0.650000X0.325000X-0.650000X-0.325000X0.650000X-0.325000X0.650000X0.325000X0*%
%ADD22RoundRect,0.237500X-0.237500X0.250000X-0.237500X-0.250000X0.237500X-0.250000X0.237500X0.250000X0*%
%ADD23R,1.500000X1.000000*%
%ADD24R,2.000000X1.500000*%
%ADD25R,2.000000X3.800000*%
%ADD26RoundRect,0.225000X0.250000X-0.225000X0.250000X0.225000X-0.250000X0.225000X-0.250000X-0.225000X0*%
G04 APERTURE END LIST*
D10*
G04 #@! TO.C,SW3*
X177000000Y-77600000D03*
X177000000Y-83400000D03*
X173000000Y-77600000D03*
X173000000Y-83400000D03*
G04 #@! TD*
D11*
G04 #@! TO.C,R5*
X136087500Y-111000000D03*
X137912500Y-111000000D03*
G04 #@! TD*
D10*
G04 #@! TO.C,SW1*
X135000000Y-119900000D03*
X135000000Y-114100000D03*
X139000000Y-114100000D03*
X139000000Y-119900000D03*
G04 #@! TD*
D12*
G04 #@! TO.C,J3*
X197980000Y-92400000D03*
X197980000Y-91600000D03*
X197980000Y-90300000D03*
X197980000Y-89300000D03*
X197980000Y-88800000D03*
X197980000Y-87800000D03*
X197980000Y-86500000D03*
X197980000Y-85700000D03*
X197980000Y-86000000D03*
X197980000Y-86800000D03*
X197980000Y-87300000D03*
X197980000Y-88300000D03*
X197980000Y-89800000D03*
X197980000Y-90800000D03*
X197980000Y-91300000D03*
X197980000Y-92100000D03*
G04 #@! TD*
D13*
G04 #@! TO.C,R2*
X188500000Y-93912500D03*
X188500000Y-92087500D03*
G04 #@! TD*
D14*
G04 #@! TO.C,C3*
X140000000Y-91475000D03*
X140000000Y-88525000D03*
G04 #@! TD*
D15*
G04 #@! TO.C,U2*
X147500000Y-88495000D03*
X147500000Y-89765000D03*
X147500000Y-91035000D03*
X147500000Y-92305000D03*
X147500000Y-93575000D03*
X147500000Y-94845000D03*
X147500000Y-96115000D03*
X147500000Y-97385000D03*
X147500000Y-98655000D03*
X147500000Y-99925000D03*
X147500000Y-101195000D03*
X147500000Y-102465000D03*
X147500000Y-103735000D03*
X147500000Y-105005000D03*
D16*
X150285000Y-106005000D03*
X151555000Y-106005000D03*
X152825000Y-106005000D03*
X154095000Y-106005000D03*
X155365000Y-106005000D03*
X156635000Y-106005000D03*
X157905000Y-106005000D03*
X159175000Y-106005000D03*
X160445000Y-106005000D03*
X161715000Y-106005000D03*
D15*
X164500000Y-105005000D03*
X164500000Y-103735000D03*
X164500000Y-102465000D03*
X164500000Y-101195000D03*
X164500000Y-99925000D03*
X164500000Y-98655000D03*
X164500000Y-97385000D03*
X164500000Y-96115000D03*
X164500000Y-94845000D03*
X164500000Y-93575000D03*
X164500000Y-92305000D03*
X164500000Y-91035000D03*
X164500000Y-89765000D03*
X164500000Y-88495000D03*
D17*
X155000000Y-95995000D03*
G04 #@! TD*
D18*
G04 #@! TO.C,C5*
X136225000Y-86500000D03*
X137775000Y-86500000D03*
G04 #@! TD*
D19*
G04 #@! TO.C,R3*
X137912500Y-102500000D03*
X136087500Y-102500000D03*
G04 #@! TD*
D20*
G04 #@! TO.C,D1*
X185500000Y-89000000D03*
X185500000Y-93000000D03*
G04 #@! TD*
D21*
G04 #@! TO.C,C1*
X182000000Y-87525000D03*
X182000000Y-90475000D03*
G04 #@! TD*
D22*
G04 #@! TO.C,R6*
X134412000Y-88804500D03*
X134412000Y-90629500D03*
G04 #@! TD*
D23*
G04 #@! TO.C,D2*
X180550000Y-112900000D03*
X180550000Y-116100000D03*
X185450000Y-116100000D03*
X185450000Y-112900000D03*
G04 #@! TD*
G04 #@! TO.C,D3*
X190550000Y-112900000D03*
X190550000Y-116100000D03*
X195450000Y-116100000D03*
X195450000Y-112900000D03*
G04 #@! TD*
D24*
G04 #@! TO.C,U1*
X179150000Y-93800000D03*
X179150000Y-91500000D03*
D25*
X172850000Y-91500000D03*
D24*
X179150000Y-89200000D03*
G04 #@! TD*
D22*
G04 #@! TO.C,R1*
X188500000Y-88087500D03*
X188500000Y-89912500D03*
G04 #@! TD*
D10*
G04 #@! TO.C,SW2*
X139000000Y-77600000D03*
X139000000Y-83400000D03*
X135000000Y-83400000D03*
X135000000Y-77600000D03*
G04 #@! TD*
D26*
G04 #@! TO.C,C4*
X136952000Y-90583000D03*
X136952000Y-89033000D03*
G04 #@! TD*
D14*
G04 #@! TO.C,C2*
X182000000Y-95475000D03*
X182000000Y-92525000D03*
G04 #@! TD*
M02*
