G04 #@! TF.GenerationSoftware,KiCad,Pcbnew,6.0.9-8da3e8f707~117~ubuntu22.04.1*
G04 #@! TF.CreationDate,2022-12-19T09:45:41+00:00*
G04 #@! TF.ProjectId,esp32display,65737033-3264-4697-9370-6c61792e6b69,rev?*
G04 #@! TF.SameCoordinates,Original*
G04 #@! TF.FileFunction,Soldermask,Top*
G04 #@! TF.FilePolarity,Negative*
%FSLAX46Y46*%
G04 Gerber Fmt 4.6, Leading zero omitted, Abs format (unit mm)*
G04 Created by KiCad (PCBNEW 6.0.9-8da3e8f707~117~ubuntu22.04.1) date 2022-12-19 09:45:41*
%MOMM*%
%LPD*%
G01*
G04 APERTURE LIST*
G04 Aperture macros list*
%AMRoundRect*
0 Rectangle with rounded corners*
0 $1 Rounding radius*
0 $2 $3 $4 $5 $6 $7 $8 $9 X,Y pos of 4 corners*
0 Add a 4 corners polygon primitive as box body*
4,1,4,$2,$3,$4,$5,$6,$7,$8,$9,$2,$3,0*
0 Add four circle primitives for the rounded corners*
1,1,$1+$1,$2,$3*
1,1,$1+$1,$4,$5*
1,1,$1+$1,$6,$7*
1,1,$1+$1,$8,$9*
0 Add four rect primitives between the rounded corners*
20,1,$1+$1,$2,$3,$4,$5,0*
20,1,$1+$1,$4,$5,$6,$7,0*
20,1,$1+$1,$6,$7,$8,$9,0*
20,1,$1+$1,$8,$9,$2,$3,0*%
G04 Aperture macros list end*
%ADD10R,1.000000X2.800000*%
%ADD11R,1.700000X1.700000*%
%ADD12O,1.700000X1.700000*%
%ADD13RoundRect,0.237500X-0.250000X-0.237500X0.250000X-0.237500X0.250000X0.237500X-0.250000X0.237500X0*%
%ADD14C,0.650000*%
%ADD15R,3.150000X0.300000*%
%ADD16O,2.100000X1.000000*%
%ADD17O,1.600000X1.000000*%
%ADD18RoundRect,0.237500X0.237500X-0.250000X0.237500X0.250000X-0.237500X0.250000X-0.237500X-0.250000X0*%
%ADD19RoundRect,1.000000X-3.000000X1.000000X-3.000000X-1.000000X3.000000X-1.000000X3.000000X1.000000X0*%
%ADD20RoundRect,0.250000X0.650000X-0.325000X0.650000X0.325000X-0.650000X0.325000X-0.650000X-0.325000X0*%
%ADD21R,2.000000X0.900000*%
%ADD22R,0.900000X2.000000*%
%ADD23R,5.000000X5.000000*%
%ADD24RoundRect,0.225000X-0.225000X-0.250000X0.225000X-0.250000X0.225000X0.250000X-0.225000X0.250000X0*%
%ADD25C,0.800000*%
%ADD26C,6.400000*%
%ADD27RoundRect,0.237500X0.250000X0.237500X-0.250000X0.237500X-0.250000X-0.237500X0.250000X-0.237500X0*%
%ADD28R,1.800000X2.500000*%
%ADD29RoundRect,0.250000X-0.600000X-0.600000X0.600000X-0.600000X0.600000X0.600000X-0.600000X0.600000X0*%
%ADD30C,1.700000*%
%ADD31RoundRect,0.250000X-0.650000X0.325000X-0.650000X-0.325000X0.650000X-0.325000X0.650000X0.325000X0*%
%ADD32RoundRect,0.237500X-0.237500X0.250000X-0.237500X-0.250000X0.237500X-0.250000X0.237500X0.250000X0*%
%ADD33R,1.500000X1.000000*%
%ADD34R,2.000000X1.500000*%
%ADD35R,2.000000X3.800000*%
%ADD36C,1.500000*%
%ADD37RoundRect,0.225000X0.250000X-0.225000X0.250000X0.225000X-0.250000X0.225000X-0.250000X-0.225000X0*%
G04 APERTURE END LIST*
D10*
G04 #@! TO.C,SW3*
X177000000Y-77600000D03*
X177000000Y-83400000D03*
X173000000Y-77600000D03*
X173000000Y-83400000D03*
G04 #@! TD*
D11*
G04 #@! TO.C,J8*
X190500000Y-121000000D03*
D12*
X193040000Y-121000000D03*
X195580000Y-121000000D03*
G04 #@! TD*
D13*
G04 #@! TO.C,R5*
X136087500Y-111000000D03*
X137912500Y-111000000D03*
G04 #@! TD*
D10*
G04 #@! TO.C,SW1*
X135000000Y-119900000D03*
X135000000Y-114100000D03*
X139000000Y-114100000D03*
X139000000Y-119900000D03*
G04 #@! TD*
D14*
G04 #@! TO.C,J3*
X200045000Y-91940000D03*
X200045000Y-86160000D03*
D15*
X197980000Y-92400000D03*
X197980000Y-91600000D03*
X197980000Y-90300000D03*
X197980000Y-89300000D03*
X197980000Y-88800000D03*
X197980000Y-87800000D03*
X197980000Y-86500000D03*
X197980000Y-85700000D03*
X197980000Y-86000000D03*
X197980000Y-86800000D03*
X197980000Y-87300000D03*
X197980000Y-88300000D03*
X197980000Y-89800000D03*
X197980000Y-90800000D03*
X197980000Y-91300000D03*
X197980000Y-92100000D03*
D16*
X199545000Y-93370000D03*
D17*
X203725000Y-84730000D03*
D16*
X199545000Y-84730000D03*
D17*
X203725000Y-93370000D03*
G04 #@! TD*
D18*
G04 #@! TO.C,R2*
X188500000Y-93912500D03*
X188500000Y-92087500D03*
G04 #@! TD*
D11*
G04 #@! TO.C,J6*
X169725000Y-121000000D03*
D12*
X172265000Y-121000000D03*
G04 #@! TD*
D19*
G04 #@! TO.C,J2*
X202000000Y-107460000D03*
X202000000Y-112540000D03*
G04 #@! TD*
D20*
G04 #@! TO.C,C3*
X140000000Y-91475000D03*
X140000000Y-88525000D03*
G04 #@! TD*
D21*
G04 #@! TO.C,U2*
X147500000Y-88495000D03*
X147500000Y-89765000D03*
X147500000Y-91035000D03*
X147500000Y-92305000D03*
X147500000Y-93575000D03*
X147500000Y-94845000D03*
X147500000Y-96115000D03*
X147500000Y-97385000D03*
X147500000Y-98655000D03*
X147500000Y-99925000D03*
X147500000Y-101195000D03*
X147500000Y-102465000D03*
X147500000Y-103735000D03*
X147500000Y-105005000D03*
D22*
X150285000Y-106005000D03*
X151555000Y-106005000D03*
X152825000Y-106005000D03*
X154095000Y-106005000D03*
X155365000Y-106005000D03*
X156635000Y-106005000D03*
X157905000Y-106005000D03*
X159175000Y-106005000D03*
X160445000Y-106005000D03*
X161715000Y-106005000D03*
D21*
X164500000Y-105005000D03*
X164500000Y-103735000D03*
X164500000Y-102465000D03*
X164500000Y-101195000D03*
X164500000Y-99925000D03*
X164500000Y-98655000D03*
X164500000Y-97385000D03*
X164500000Y-96115000D03*
X164500000Y-94845000D03*
X164500000Y-93575000D03*
X164500000Y-92305000D03*
X164500000Y-91035000D03*
X164500000Y-89765000D03*
X164500000Y-88495000D03*
D23*
X155000000Y-95995000D03*
G04 #@! TD*
D24*
G04 #@! TO.C,C5*
X136225000Y-86500000D03*
X137775000Y-86500000D03*
G04 #@! TD*
D11*
G04 #@! TO.C,J4*
X148340000Y-121000000D03*
D12*
X150880000Y-121000000D03*
X153420000Y-121000000D03*
X155960000Y-121000000D03*
X158500000Y-121000000D03*
X161040000Y-121000000D03*
G04 #@! TD*
D11*
G04 #@! TO.C,J9*
X182650000Y-78000000D03*
D12*
X185190000Y-78000000D03*
X187730000Y-78000000D03*
X190270000Y-78000000D03*
X192810000Y-78000000D03*
X195350000Y-78000000D03*
G04 #@! TD*
D25*
G04 #@! TO.C,REF\u002A\u002A*
X203197056Y-117302944D03*
X199802944Y-117302944D03*
X199802944Y-120697056D03*
X201500000Y-121400000D03*
X203197056Y-120697056D03*
X201500000Y-116600000D03*
X203900000Y-119000000D03*
X199100000Y-119000000D03*
D26*
X201500000Y-119000000D03*
G04 #@! TD*
D27*
G04 #@! TO.C,R3*
X137912500Y-102500000D03*
X136087500Y-102500000D03*
G04 #@! TD*
D28*
G04 #@! TO.C,D1*
X185500000Y-89000000D03*
X185500000Y-93000000D03*
G04 #@! TD*
D29*
G04 #@! TO.C,J5*
X126247500Y-89610000D03*
D30*
X128787500Y-89610000D03*
X126247500Y-92150000D03*
X128787500Y-92150000D03*
X126247500Y-94690000D03*
X128787500Y-94690000D03*
X126247500Y-97230000D03*
X128787500Y-97230000D03*
X126247500Y-99770000D03*
X128787500Y-99770000D03*
X126247500Y-102310000D03*
X128787500Y-102310000D03*
X126247500Y-104850000D03*
X128787500Y-104850000D03*
X126247500Y-107390000D03*
X128787500Y-107390000D03*
G04 #@! TD*
D31*
G04 #@! TO.C,C1*
X182000000Y-87525000D03*
X182000000Y-90475000D03*
G04 #@! TD*
D32*
G04 #@! TO.C,R6*
X134412000Y-88804500D03*
X134412000Y-90629500D03*
G04 #@! TD*
D33*
G04 #@! TO.C,D2*
X180550000Y-112900000D03*
X180550000Y-116100000D03*
X185450000Y-116100000D03*
X185450000Y-112900000D03*
G04 #@! TD*
G04 #@! TO.C,D3*
X190550000Y-112900000D03*
X190550000Y-116100000D03*
X195450000Y-116100000D03*
X195450000Y-112900000D03*
G04 #@! TD*
D34*
G04 #@! TO.C,U1*
X179150000Y-93800000D03*
X179150000Y-91500000D03*
D35*
X172850000Y-91500000D03*
D34*
X179150000Y-89200000D03*
G04 #@! TD*
D25*
G04 #@! TO.C,REF\u002A\u002A*
X203900000Y-79000000D03*
X201500000Y-76600000D03*
X199802944Y-80697056D03*
X201500000Y-81400000D03*
X203197056Y-77302944D03*
X203197056Y-80697056D03*
D26*
X201500000Y-79000000D03*
D25*
X199100000Y-79000000D03*
X199802944Y-77302944D03*
G04 #@! TD*
D11*
G04 #@! TO.C,J7*
X180475000Y-121000000D03*
D12*
X183015000Y-121000000D03*
X185555000Y-121000000D03*
G04 #@! TD*
D19*
G04 #@! TO.C,J1*
X202000000Y-96920000D03*
X202000000Y-102000000D03*
G04 #@! TD*
D36*
G04 #@! TO.C,R4*
X135300000Y-106500000D03*
X138700000Y-106500000D03*
G04 #@! TD*
D32*
G04 #@! TO.C,R1*
X188500000Y-88087500D03*
X188500000Y-89912500D03*
G04 #@! TD*
D25*
G04 #@! TO.C,REF\u002A\u002A*
X126500000Y-81400000D03*
X124802944Y-77302944D03*
X128197056Y-80697056D03*
X124100000Y-79000000D03*
D26*
X126500000Y-79000000D03*
D25*
X126500000Y-76600000D03*
X128197056Y-77302944D03*
X128900000Y-79000000D03*
X124802944Y-80697056D03*
G04 #@! TD*
D10*
G04 #@! TO.C,SW2*
X139000000Y-77600000D03*
X139000000Y-83400000D03*
X135000000Y-83400000D03*
X135000000Y-77600000D03*
G04 #@! TD*
D37*
G04 #@! TO.C,C4*
X136952000Y-90583000D03*
X136952000Y-89033000D03*
G04 #@! TD*
D20*
G04 #@! TO.C,C2*
X182000000Y-95475000D03*
X182000000Y-92525000D03*
G04 #@! TD*
D25*
G04 #@! TO.C,REF\u002A\u002A*
X128197056Y-117302944D03*
X124100000Y-119000000D03*
X126500000Y-121400000D03*
X126500000Y-116600000D03*
D26*
X126500000Y-119000000D03*
D25*
X124802944Y-120697056D03*
X128900000Y-119000000D03*
X128197056Y-120697056D03*
X124802944Y-117302944D03*
G04 #@! TD*
M02*
