G04 #@! TF.GenerationSoftware,KiCad,Pcbnew,6.0.9-8da3e8f707~117~ubuntu22.04.1*
G04 #@! TF.CreationDate,2022-12-19T09:45:41+00:00*
G04 #@! TF.ProjectId,esp32display,65737033-3264-4697-9370-6c61792e6b69,rev?*
G04 #@! TF.SameCoordinates,Original*
G04 #@! TF.FileFunction,Other,Comment*
%FSLAX46Y46*%
G04 Gerber Fmt 4.6, Leading zero omitted, Abs format (unit mm)*
G04 Created by KiCad (PCBNEW 6.0.9-8da3e8f707~117~ubuntu22.04.1) date 2022-12-19 09:45:41*
%MOMM*%
%LPD*%
G01*
G04 APERTURE LIST*
%ADD10C,0.100000*%
%ADD11C,0.150000*%
G04 APERTURE END LIST*
D10*
G04 #@! TO.C,U2*
X167061904Y-82101190D02*
X166823809Y-82101190D01*
X166800000Y-82339285D01*
X166823809Y-82315476D01*
X166871428Y-82291666D01*
X166990476Y-82291666D01*
X167038095Y-82315476D01*
X167061904Y-82339285D01*
X167085714Y-82386904D01*
X167085714Y-82505952D01*
X167061904Y-82553571D01*
X167038095Y-82577380D01*
X166990476Y-82601190D01*
X166871428Y-82601190D01*
X166823809Y-82577380D01*
X166800000Y-82553571D01*
X167680952Y-82601190D02*
X167680952Y-82267857D01*
X167680952Y-82315476D02*
X167704761Y-82291666D01*
X167752380Y-82267857D01*
X167823809Y-82267857D01*
X167871428Y-82291666D01*
X167895238Y-82339285D01*
X167895238Y-82601190D01*
X167895238Y-82339285D02*
X167919047Y-82291666D01*
X167966666Y-82267857D01*
X168038095Y-82267857D01*
X168085714Y-82291666D01*
X168109523Y-82339285D01*
X168109523Y-82601190D01*
X168347619Y-82601190D02*
X168347619Y-82267857D01*
X168347619Y-82315476D02*
X168371428Y-82291666D01*
X168419047Y-82267857D01*
X168490476Y-82267857D01*
X168538095Y-82291666D01*
X168561904Y-82339285D01*
X168561904Y-82601190D01*
X168561904Y-82339285D02*
X168585714Y-82291666D01*
X168633333Y-82267857D01*
X168704761Y-82267857D01*
X168752380Y-82291666D01*
X168776190Y-82339285D01*
X168776190Y-82601190D01*
D11*
X153238095Y-83916666D02*
X153714285Y-83916666D01*
X153142857Y-84202380D02*
X153476190Y-83202380D01*
X153809523Y-84202380D01*
X154142857Y-83535714D02*
X154142857Y-84202380D01*
X154142857Y-83630952D02*
X154190476Y-83583333D01*
X154285714Y-83535714D01*
X154428571Y-83535714D01*
X154523809Y-83583333D01*
X154571428Y-83678571D01*
X154571428Y-84202380D01*
X154904761Y-83535714D02*
X155285714Y-83535714D01*
X155047619Y-83202380D02*
X155047619Y-84059523D01*
X155095238Y-84154761D01*
X155190476Y-84202380D01*
X155285714Y-84202380D01*
X156000000Y-84154761D02*
X155904761Y-84202380D01*
X155714285Y-84202380D01*
X155619047Y-84154761D01*
X155571428Y-84059523D01*
X155571428Y-83678571D01*
X155619047Y-83583333D01*
X155714285Y-83535714D01*
X155904761Y-83535714D01*
X156000000Y-83583333D01*
X156047619Y-83678571D01*
X156047619Y-83773809D01*
X155571428Y-83869047D01*
X156476190Y-83535714D02*
X156476190Y-84202380D01*
X156476190Y-83630952D02*
X156523809Y-83583333D01*
X156619047Y-83535714D01*
X156761904Y-83535714D01*
X156857142Y-83583333D01*
X156904761Y-83678571D01*
X156904761Y-84202380D01*
X157380952Y-83535714D02*
X157380952Y-84202380D01*
X157380952Y-83630952D02*
X157428571Y-83583333D01*
X157523809Y-83535714D01*
X157666666Y-83535714D01*
X157761904Y-83583333D01*
X157809523Y-83678571D01*
X157809523Y-84202380D01*
X158714285Y-84202380D02*
X158714285Y-83678571D01*
X158666666Y-83583333D01*
X158571428Y-83535714D01*
X158380952Y-83535714D01*
X158285714Y-83583333D01*
X158714285Y-84154761D02*
X158619047Y-84202380D01*
X158380952Y-84202380D01*
X158285714Y-84154761D01*
X158238095Y-84059523D01*
X158238095Y-83964285D01*
X158285714Y-83869047D01*
X158380952Y-83821428D01*
X158619047Y-83821428D01*
X158714285Y-83773809D01*
X149928571Y-78202380D02*
X149928571Y-77202380D01*
X150500000Y-78202380D02*
X150071428Y-77630952D01*
X150500000Y-77202380D02*
X149928571Y-77773809D01*
X150928571Y-77678571D02*
X151261904Y-77678571D01*
X151404761Y-78202380D02*
X150928571Y-78202380D01*
X150928571Y-77202380D01*
X151404761Y-77202380D01*
X151833333Y-77678571D02*
X152166666Y-77678571D01*
X152309523Y-78202380D02*
X151833333Y-78202380D01*
X151833333Y-77202380D01*
X152309523Y-77202380D01*
X152738095Y-78202380D02*
X152738095Y-77202380D01*
X153119047Y-77202380D01*
X153214285Y-77250000D01*
X153261904Y-77297619D01*
X153309523Y-77392857D01*
X153309523Y-77535714D01*
X153261904Y-77630952D01*
X153214285Y-77678571D01*
X153119047Y-77726190D01*
X152738095Y-77726190D01*
X153738095Y-77821428D02*
X154500000Y-77821428D01*
X155166666Y-77202380D02*
X155357142Y-77202380D01*
X155452380Y-77250000D01*
X155547619Y-77345238D01*
X155595238Y-77535714D01*
X155595238Y-77869047D01*
X155547619Y-78059523D01*
X155452380Y-78154761D01*
X155357142Y-78202380D01*
X155166666Y-78202380D01*
X155071428Y-78154761D01*
X154976190Y-78059523D01*
X154928571Y-77869047D01*
X154928571Y-77535714D01*
X154976190Y-77345238D01*
X155071428Y-77250000D01*
X155166666Y-77202380D01*
X156023809Y-77202380D02*
X156023809Y-78011904D01*
X156071428Y-78107142D01*
X156119047Y-78154761D01*
X156214285Y-78202380D01*
X156404761Y-78202380D01*
X156500000Y-78154761D01*
X156547619Y-78107142D01*
X156595238Y-78011904D01*
X156595238Y-77202380D01*
X156928571Y-77202380D02*
X157500000Y-77202380D01*
X157214285Y-78202380D02*
X157214285Y-77202380D01*
X158500000Y-77202380D02*
X159166666Y-77202380D01*
X158500000Y-78202380D01*
X159166666Y-78202380D01*
X159738095Y-77202380D02*
X159928571Y-77202380D01*
X160023809Y-77250000D01*
X160119047Y-77345238D01*
X160166666Y-77535714D01*
X160166666Y-77869047D01*
X160119047Y-78059523D01*
X160023809Y-78154761D01*
X159928571Y-78202380D01*
X159738095Y-78202380D01*
X159642857Y-78154761D01*
X159547619Y-78059523D01*
X159500000Y-77869047D01*
X159500000Y-77535714D01*
X159547619Y-77345238D01*
X159642857Y-77250000D01*
X159738095Y-77202380D01*
X160595238Y-78202380D02*
X160595238Y-77202380D01*
X161166666Y-78202380D01*
X161166666Y-77202380D01*
X161642857Y-77678571D02*
X161976190Y-77678571D01*
X162119047Y-78202380D02*
X161642857Y-78202380D01*
X161642857Y-77202380D01*
X162119047Y-77202380D01*
D10*
X144061904Y-82101190D02*
X143823809Y-82101190D01*
X143800000Y-82339285D01*
X143823809Y-82315476D01*
X143871428Y-82291666D01*
X143990476Y-82291666D01*
X144038095Y-82315476D01*
X144061904Y-82339285D01*
X144085714Y-82386904D01*
X144085714Y-82505952D01*
X144061904Y-82553571D01*
X144038095Y-82577380D01*
X143990476Y-82601190D01*
X143871428Y-82601190D01*
X143823809Y-82577380D01*
X143800000Y-82553571D01*
X144680952Y-82601190D02*
X144680952Y-82267857D01*
X144680952Y-82315476D02*
X144704761Y-82291666D01*
X144752380Y-82267857D01*
X144823809Y-82267857D01*
X144871428Y-82291666D01*
X144895238Y-82339285D01*
X144895238Y-82601190D01*
X144895238Y-82339285D02*
X144919047Y-82291666D01*
X144966666Y-82267857D01*
X145038095Y-82267857D01*
X145085714Y-82291666D01*
X145109523Y-82339285D01*
X145109523Y-82601190D01*
X145347619Y-82601190D02*
X145347619Y-82267857D01*
X145347619Y-82315476D02*
X145371428Y-82291666D01*
X145419047Y-82267857D01*
X145490476Y-82267857D01*
X145538095Y-82291666D01*
X145561904Y-82339285D01*
X145561904Y-82601190D01*
X145561904Y-82339285D02*
X145585714Y-82291666D01*
X145633333Y-82267857D01*
X145704761Y-82267857D01*
X145752380Y-82291666D01*
X145776190Y-82339285D01*
X145776190Y-82601190D01*
X163526190Y-78413095D02*
X163526190Y-78651190D01*
X163764285Y-78675000D01*
X163740476Y-78651190D01*
X163716666Y-78603571D01*
X163716666Y-78484523D01*
X163740476Y-78436904D01*
X163764285Y-78413095D01*
X163811904Y-78389285D01*
X163930952Y-78389285D01*
X163978571Y-78413095D01*
X164002380Y-78436904D01*
X164026190Y-78484523D01*
X164026190Y-78603571D01*
X164002380Y-78651190D01*
X163978571Y-78675000D01*
X164026190Y-77794047D02*
X163692857Y-77794047D01*
X163740476Y-77794047D02*
X163716666Y-77770238D01*
X163692857Y-77722619D01*
X163692857Y-77651190D01*
X163716666Y-77603571D01*
X163764285Y-77579761D01*
X164026190Y-77579761D01*
X163764285Y-77579761D02*
X163716666Y-77555952D01*
X163692857Y-77508333D01*
X163692857Y-77436904D01*
X163716666Y-77389285D01*
X163764285Y-77365476D01*
X164026190Y-77365476D01*
X164026190Y-77127380D02*
X163692857Y-77127380D01*
X163740476Y-77127380D02*
X163716666Y-77103571D01*
X163692857Y-77055952D01*
X163692857Y-76984523D01*
X163716666Y-76936904D01*
X163764285Y-76913095D01*
X164026190Y-76913095D01*
X163764285Y-76913095D02*
X163716666Y-76889285D01*
X163692857Y-76841666D01*
X163692857Y-76770238D01*
X163716666Y-76722619D01*
X163764285Y-76698809D01*
X164026190Y-76698809D01*
X165200000Y-82875000D02*
X165400000Y-83075000D01*
X142200000Y-82875000D02*
X142400000Y-82675000D01*
X165200000Y-82875000D02*
X169800000Y-82875000D01*
X164400000Y-80750000D02*
X164200000Y-80550000D01*
X169800000Y-82875000D02*
X169600000Y-82675000D01*
X164400000Y-76150000D02*
X164600000Y-76350000D01*
X146800000Y-82875000D02*
X146600000Y-82675000D01*
X146800000Y-82875000D02*
X146600000Y-83075000D01*
X165200000Y-82875000D02*
X165400000Y-82675000D01*
X142200000Y-82875000D02*
X146800000Y-82875000D01*
X169800000Y-82875000D02*
X169600000Y-83075000D01*
X142200000Y-82875000D02*
X142400000Y-83075000D01*
X164400000Y-76150000D02*
X164200000Y-76350000D01*
X164400000Y-80750000D02*
X164400000Y-76150000D01*
X164400000Y-80750000D02*
X164600000Y-80550000D01*
D11*
G04 #@! TO.C,REF\u002A\u002A*
X204700000Y-119000000D02*
G75*
G03*
X204700000Y-119000000I-3200000J0D01*
G01*
X204700000Y-79000000D02*
G75*
G03*
X204700000Y-79000000I-3200000J0D01*
G01*
X129700000Y-79000000D02*
G75*
G03*
X129700000Y-79000000I-3200000J0D01*
G01*
X129700000Y-119000000D02*
G75*
G03*
X129700000Y-119000000I-3200000J0D01*
G01*
G04 #@! TD*
M02*
