G04 #@! TF.GenerationSoftware,KiCad,Pcbnew,6.0.9-8da3e8f707~117~ubuntu22.04.1*
G04 #@! TF.CreationDate,2022-12-19T09:45:41+00:00*
G04 #@! TF.ProjectId,esp32display,65737033-3264-4697-9370-6c61792e6b69,rev?*
G04 #@! TF.SameCoordinates,Original*
G04 #@! TF.FileFunction,Soldermask,Bot*
G04 #@! TF.FilePolarity,Negative*
%FSLAX46Y46*%
G04 Gerber Fmt 4.6, Leading zero omitted, Abs format (unit mm)*
G04 Created by KiCad (PCBNEW 6.0.9-8da3e8f707~117~ubuntu22.04.1) date 2022-12-19 09:45:41*
%MOMM*%
%LPD*%
G01*
G04 APERTURE LIST*
G04 Aperture macros list*
%AMRoundRect*
0 Rectangle with rounded corners*
0 $1 Rounding radius*
0 $2 $3 $4 $5 $6 $7 $8 $9 X,Y pos of 4 corners*
0 Add a 4 corners polygon primitive as box body*
4,1,4,$2,$3,$4,$5,$6,$7,$8,$9,$2,$3,0*
0 Add four circle primitives for the rounded corners*
1,1,$1+$1,$2,$3*
1,1,$1+$1,$4,$5*
1,1,$1+$1,$6,$7*
1,1,$1+$1,$8,$9*
0 Add four rect primitives between the rounded corners*
20,1,$1+$1,$2,$3,$4,$5,0*
20,1,$1+$1,$4,$5,$6,$7,0*
20,1,$1+$1,$6,$7,$8,$9,0*
20,1,$1+$1,$8,$9,$2,$3,0*%
G04 Aperture macros list end*
%ADD10R,1.700000X1.700000*%
%ADD11O,1.700000X1.700000*%
%ADD12C,0.650000*%
%ADD13O,2.100000X1.000000*%
%ADD14O,1.600000X1.000000*%
%ADD15RoundRect,1.000000X-3.000000X1.000000X-3.000000X-1.000000X3.000000X-1.000000X3.000000X1.000000X0*%
%ADD16C,0.800000*%
%ADD17C,6.400000*%
%ADD18RoundRect,0.250000X-0.600000X-0.600000X0.600000X-0.600000X0.600000X0.600000X-0.600000X0.600000X0*%
%ADD19C,1.700000*%
%ADD20C,1.500000*%
G04 APERTURE END LIST*
D10*
G04 #@! TO.C,J8*
X190500000Y-121000000D03*
D11*
X193040000Y-121000000D03*
X195580000Y-121000000D03*
G04 #@! TD*
D12*
G04 #@! TO.C,J3*
X200045000Y-91940000D03*
X200045000Y-86160000D03*
D13*
X199545000Y-93370000D03*
D14*
X203725000Y-84730000D03*
D13*
X199545000Y-84730000D03*
D14*
X203725000Y-93370000D03*
G04 #@! TD*
D10*
G04 #@! TO.C,J6*
X169725000Y-121000000D03*
D11*
X172265000Y-121000000D03*
G04 #@! TD*
D15*
G04 #@! TO.C,J2*
X202000000Y-107460000D03*
X202000000Y-112540000D03*
G04 #@! TD*
D10*
G04 #@! TO.C,J4*
X148340000Y-121000000D03*
D11*
X150880000Y-121000000D03*
X153420000Y-121000000D03*
X155960000Y-121000000D03*
X158500000Y-121000000D03*
X161040000Y-121000000D03*
G04 #@! TD*
D10*
G04 #@! TO.C,J9*
X182650000Y-78000000D03*
D11*
X185190000Y-78000000D03*
X187730000Y-78000000D03*
X190270000Y-78000000D03*
X192810000Y-78000000D03*
X195350000Y-78000000D03*
G04 #@! TD*
D16*
G04 #@! TO.C,REF\u002A\u002A*
X203197056Y-117302944D03*
X199802944Y-117302944D03*
X199802944Y-120697056D03*
X201500000Y-121400000D03*
X203197056Y-120697056D03*
X201500000Y-116600000D03*
X203900000Y-119000000D03*
X199100000Y-119000000D03*
D17*
X201500000Y-119000000D03*
G04 #@! TD*
D18*
G04 #@! TO.C,J5*
X126247500Y-89610000D03*
D19*
X128787500Y-89610000D03*
X126247500Y-92150000D03*
X128787500Y-92150000D03*
X126247500Y-94690000D03*
X128787500Y-94690000D03*
X126247500Y-97230000D03*
X128787500Y-97230000D03*
X126247500Y-99770000D03*
X128787500Y-99770000D03*
X126247500Y-102310000D03*
X128787500Y-102310000D03*
X126247500Y-104850000D03*
X128787500Y-104850000D03*
X126247500Y-107390000D03*
X128787500Y-107390000D03*
G04 #@! TD*
D16*
G04 #@! TO.C,REF\u002A\u002A*
X203900000Y-79000000D03*
X201500000Y-76600000D03*
X199802944Y-80697056D03*
X201500000Y-81400000D03*
X203197056Y-77302944D03*
X203197056Y-80697056D03*
D17*
X201500000Y-79000000D03*
D16*
X199100000Y-79000000D03*
X199802944Y-77302944D03*
G04 #@! TD*
D10*
G04 #@! TO.C,J7*
X180475000Y-121000000D03*
D11*
X183015000Y-121000000D03*
X185555000Y-121000000D03*
G04 #@! TD*
D15*
G04 #@! TO.C,J1*
X202000000Y-96920000D03*
X202000000Y-102000000D03*
G04 #@! TD*
D20*
G04 #@! TO.C,R4*
X135300000Y-106500000D03*
X138700000Y-106500000D03*
G04 #@! TD*
D16*
G04 #@! TO.C,REF\u002A\u002A*
X126500000Y-81400000D03*
X124802944Y-77302944D03*
X128197056Y-80697056D03*
X124100000Y-79000000D03*
D17*
X126500000Y-79000000D03*
D16*
X126500000Y-76600000D03*
X128197056Y-77302944D03*
X128900000Y-79000000D03*
X124802944Y-80697056D03*
G04 #@! TD*
G04 #@! TO.C,REF\u002A\u002A*
X128197056Y-117302944D03*
X124100000Y-119000000D03*
X126500000Y-121400000D03*
X126500000Y-116600000D03*
D17*
X126500000Y-119000000D03*
D16*
X124802944Y-120697056D03*
X128900000Y-119000000D03*
X128197056Y-120697056D03*
X124802944Y-117302944D03*
G04 #@! TD*
M02*
