M48
; DRILL file {KiCad 6.0.9-8da3e8f707~117~ubuntu22.04.1} date Mon Dec 19 09:45:42 2022
; FORMAT={-:-/ absolute / metric / decimal}
; #@! TF.CreationDate,2022-12-19T09:45:42+00:00
; #@! TF.GenerationSoftware,Kicad,Pcbnew,6.0.9-8da3e8f707~117~ubuntu22.04.1
; #@! TF.FileFunction,MixedPlating,1,4
FMAT,2
METRIC
; #@! TA.AperFunction,Plated,PTH,ViaDrill
T1C0.400
; #@! TA.AperFunction,Plated,PTH,ViaDrill
T2C0.500
; #@! TA.AperFunction,Plated,PTH,ComponentDrill
T3C0.500
; #@! TA.AperFunction,Plated,PTH,ComponentDrill
T4C0.600
; #@! TA.AperFunction,Plated,PTH,ComponentDrill
T5C0.800
; #@! TA.AperFunction,Plated,PTH,ViaDrill
T6C1.000
; #@! TA.AperFunction,Plated,PTH,ComponentDrill
T7C1.000
; #@! TA.AperFunction,Plated,PTH,ComponentDrill
T8C1.500
; #@! TA.AperFunction,Plated,PTH,ComponentDrill
T9C3.200
; #@! TA.AperFunction,NonPlated,NPTH,ComponentDrill
T10C0.650
%
G90
G05
T1
X135.63Y-90.629
X137.0Y-112.5
X139.0Y-103.5
X140.5Y-107.5
X141.5Y-97.5
X142.5Y-98.5
X145.5Y-88.5
X146.5Y-106.055
X148.5Y-107.0
X149.871Y-106.605
X150.5Y-94.5
X151.0Y-93.5
X152.0Y-92.5
X160.5Y-91.0
X161.0Y-89.0
X162.5Y-94.0
X162.5Y-95.5
X165.995Y-105.005
X166.5Y-90.0
X167.0Y-92.5
X174.262Y-84.326
X195.65Y-91.4
X195.659Y-86.575
T2
X175.825Y-78.0
X175.825Y-83.0
X183.0Y-89.0
X188.5Y-91.0
T3
X124.1Y-79.0
X124.1Y-119.0
X124.803Y-77.303
X124.803Y-80.697
X124.803Y-117.303
X124.803Y-120.697
X126.5Y-76.6
X126.5Y-81.4
X126.5Y-116.6
X126.5Y-121.4
X128.197Y-77.303
X128.197Y-80.697
X128.197Y-117.303
X128.197Y-120.697
X128.9Y-79.0
X128.9Y-119.0
X199.1Y-79.0
X199.1Y-119.0
X199.803Y-77.303
X199.803Y-80.697
X199.803Y-117.303
X199.803Y-120.697
X201.5Y-76.6
X201.5Y-81.4
X201.5Y-116.6
X201.5Y-121.4
X203.197Y-77.303
X203.197Y-80.697
X203.197Y-117.303
X203.197Y-120.697
X203.9Y-79.0
X203.9Y-119.0
T5
X135.3Y-106.5
X138.7Y-106.5
T6
X170.5Y-91.5
X185.5Y-86.5
T7
X126.247Y-89.61
X126.247Y-92.15
X126.247Y-94.69
X126.247Y-97.23
X126.247Y-99.77
X126.247Y-102.31
X126.247Y-104.85
X126.247Y-107.39
X128.787Y-89.61
X128.787Y-92.15
X128.787Y-94.69
X128.787Y-97.23
X128.787Y-99.77
X128.787Y-102.31
X128.787Y-104.85
X128.787Y-107.39
X148.34Y-121.0
X150.88Y-121.0
X153.42Y-121.0
X155.96Y-121.0
X158.5Y-121.0
X161.04Y-121.0
X169.725Y-121.0
X172.265Y-121.0
X180.475Y-121.0
X182.65Y-78.0
X183.015Y-121.0
X185.19Y-78.0
X185.555Y-121.0
X187.73Y-78.0
X190.27Y-78.0
X190.5Y-121.0
X192.81Y-78.0
X193.04Y-121.0
X195.35Y-78.0
X195.58Y-121.0
T8
X204.0Y-96.92
X204.0Y-102.0
X204.0Y-107.46
X204.0Y-112.54
T9
X126.5Y-79.0
X126.5Y-119.0
X201.5Y-79.0
X201.5Y-119.0
T10
X200.045Y-86.16
X200.045Y-91.94
T4
X198.995Y-84.73G85X200.095Y-84.73
G05
X198.995Y-93.37G85X200.095Y-93.37
G05
X203.425Y-84.73G85X204.025Y-84.73
G05
X203.425Y-93.37G85X204.025Y-93.37
G05
T0
M30
