G04 #@! TF.GenerationSoftware,KiCad,Pcbnew,6.0.9-8da3e8f707~117~ubuntu22.04.1*
G04 #@! TF.CreationDate,2022-12-19T09:45:41+00:00*
G04 #@! TF.ProjectId,esp32display,65737033-3264-4697-9370-6c61792e6b69,rev?*
G04 #@! TF.SameCoordinates,Original*
G04 #@! TF.FileFunction,Copper,L4,Bot*
G04 #@! TF.FilePolarity,Positive*
%FSLAX46Y46*%
G04 Gerber Fmt 4.6, Leading zero omitted, Abs format (unit mm)*
G04 Created by KiCad (PCBNEW 6.0.9-8da3e8f707~117~ubuntu22.04.1) date 2022-12-19 09:45:41*
%MOMM*%
%LPD*%
G01*
G04 APERTURE LIST*
G04 Aperture macros list*
%AMRoundRect*
0 Rectangle with rounded corners*
0 $1 Rounding radius*
0 $2 $3 $4 $5 $6 $7 $8 $9 X,Y pos of 4 corners*
0 Add a 4 corners polygon primitive as box body*
4,1,4,$2,$3,$4,$5,$6,$7,$8,$9,$2,$3,0*
0 Add four circle primitives for the rounded corners*
1,1,$1+$1,$2,$3*
1,1,$1+$1,$4,$5*
1,1,$1+$1,$6,$7*
1,1,$1+$1,$8,$9*
0 Add four rect primitives between the rounded corners*
20,1,$1+$1,$2,$3,$4,$5,0*
20,1,$1+$1,$4,$5,$6,$7,0*
20,1,$1+$1,$6,$7,$8,$9,0*
20,1,$1+$1,$8,$9,$2,$3,0*%
G04 Aperture macros list end*
G04 #@! TA.AperFunction,ComponentPad*
%ADD10R,1.700000X1.700000*%
G04 #@! TD*
G04 #@! TA.AperFunction,ComponentPad*
%ADD11O,1.700000X1.700000*%
G04 #@! TD*
G04 #@! TA.AperFunction,ComponentPad*
%ADD12O,2.100000X1.000000*%
G04 #@! TD*
G04 #@! TA.AperFunction,ComponentPad*
%ADD13O,1.600000X1.000000*%
G04 #@! TD*
G04 #@! TA.AperFunction,ComponentPad*
%ADD14RoundRect,1.000000X-3.000000X1.000000X-3.000000X-1.000000X3.000000X-1.000000X3.000000X1.000000X0*%
G04 #@! TD*
G04 #@! TA.AperFunction,ComponentPad*
%ADD15C,0.800000*%
G04 #@! TD*
G04 #@! TA.AperFunction,ComponentPad*
%ADD16C,6.400000*%
G04 #@! TD*
G04 #@! TA.AperFunction,ComponentPad*
%ADD17RoundRect,0.250000X-0.600000X-0.600000X0.600000X-0.600000X0.600000X0.600000X-0.600000X0.600000X0*%
G04 #@! TD*
G04 #@! TA.AperFunction,ComponentPad*
%ADD18C,1.700000*%
G04 #@! TD*
G04 #@! TA.AperFunction,ComponentPad*
%ADD19C,1.500000*%
G04 #@! TD*
G04 #@! TA.AperFunction,ViaPad*
%ADD20C,2.000000*%
G04 #@! TD*
G04 #@! TA.AperFunction,ViaPad*
%ADD21C,1.000000*%
G04 #@! TD*
G04 #@! TA.AperFunction,ViaPad*
%ADD22C,0.800000*%
G04 #@! TD*
G04 #@! TA.AperFunction,Conductor*
%ADD23C,1.000000*%
G04 #@! TD*
G04 #@! TA.AperFunction,Conductor*
%ADD24C,0.250000*%
G04 #@! TD*
G04 APERTURE END LIST*
D10*
G04 #@! TO.P,J8,1,Pin_1*
G04 #@! TO.N,+5V*
X190500000Y-121000000D03*
D11*
G04 #@! TO.P,J8,2,Pin_2*
G04 #@! TO.N,Net-(D3-Pad2)*
X193040000Y-121000000D03*
G04 #@! TO.P,J8,3,Pin_3*
G04 #@! TO.N,GND*
X195580000Y-121000000D03*
G04 #@! TD*
D12*
G04 #@! TO.P,J3,S1,SHIELD*
G04 #@! TO.N,GND*
X199545000Y-93370000D03*
D13*
X203725000Y-84730000D03*
D12*
X199545000Y-84730000D03*
D13*
X203725000Y-93370000D03*
G04 #@! TD*
D10*
G04 #@! TO.P,J6,1,Pin_1*
G04 #@! TO.N,TOUCH1*
X169725000Y-121000000D03*
D11*
G04 #@! TO.P,J6,2,Pin_2*
G04 #@! TO.N,TOUCH2*
X172265000Y-121000000D03*
G04 #@! TD*
D14*
G04 #@! TO.P,J2,1,Pin_1*
G04 #@! TO.N,GND*
X202000000Y-107460000D03*
G04 #@! TO.P,J2,2,Pin_2*
G04 #@! TO.N,+5V*
X202000000Y-112540000D03*
G04 #@! TD*
D10*
G04 #@! TO.P,J4,1,Pin_1*
G04 #@! TO.N,+3V3*
X148340000Y-121000000D03*
D11*
G04 #@! TO.P,J4,2,Pin_2*
X150880000Y-121000000D03*
G04 #@! TO.P,J4,3,Pin_3*
G04 #@! TO.N,GND*
X153420000Y-121000000D03*
G04 #@! TO.P,J4,4,Pin_4*
G04 #@! TO.N,SCL*
X155960000Y-121000000D03*
G04 #@! TO.P,J4,5,Pin_5*
G04 #@! TO.N,SDA*
X158500000Y-121000000D03*
G04 #@! TO.P,J4,6,Pin_6*
G04 #@! TO.N,unconnected-(J4-Pad6)*
X161040000Y-121000000D03*
G04 #@! TD*
D10*
G04 #@! TO.P,J9,1,Pin_1*
G04 #@! TO.N,+3V3*
X182650000Y-78000000D03*
D11*
G04 #@! TO.P,J9,2,Pin_2*
G04 #@! TO.N,GND*
X185190000Y-78000000D03*
G04 #@! TO.P,J9,3,Pin_3*
G04 #@! TO.N,TXDO_PROG*
X187730000Y-78000000D03*
G04 #@! TO.P,J9,4,Pin_4*
G04 #@! TO.N,RXDI_PROG*
X190270000Y-78000000D03*
G04 #@! TO.P,J9,5,Pin_5*
G04 #@! TO.N,RESET*
X192810000Y-78000000D03*
G04 #@! TO.P,J9,6,Pin_6*
G04 #@! TO.N,BOOT*
X195350000Y-78000000D03*
G04 #@! TD*
D15*
G04 #@! TO.P,REF\u002A\u002A,1*
G04 #@! TO.N,N/C*
X203197056Y-117302944D03*
X199802944Y-117302944D03*
X199802944Y-120697056D03*
X201500000Y-121400000D03*
X203197056Y-120697056D03*
X201500000Y-116600000D03*
X203900000Y-119000000D03*
X199100000Y-119000000D03*
D16*
X201500000Y-119000000D03*
G04 #@! TD*
D17*
G04 #@! TO.P,J5,1,Pin_1*
G04 #@! TO.N,R1*
X126247500Y-89610000D03*
D18*
G04 #@! TO.P,J5,2,Pin_2*
G04 #@! TO.N,G1*
X128787500Y-89610000D03*
G04 #@! TO.P,J5,3,Pin_3*
G04 #@! TO.N,B1*
X126247500Y-92150000D03*
G04 #@! TO.P,J5,4,Pin_4*
G04 #@! TO.N,GND*
X128787500Y-92150000D03*
G04 #@! TO.P,J5,5,Pin_5*
G04 #@! TO.N,R2*
X126247500Y-94690000D03*
G04 #@! TO.P,J5,6,Pin_6*
G04 #@! TO.N,G2*
X128787500Y-94690000D03*
G04 #@! TO.P,J5,7,Pin_7*
G04 #@! TO.N,B2*
X126247500Y-97230000D03*
G04 #@! TO.P,J5,8,Pin_8*
G04 #@! TO.N,GND*
X128787500Y-97230000D03*
G04 #@! TO.P,J5,9,Pin_9*
G04 #@! TO.N,A*
X126247500Y-99770000D03*
G04 #@! TO.P,J5,10,Pin_10*
G04 #@! TO.N,B*
X128787500Y-99770000D03*
G04 #@! TO.P,J5,11,Pin_11*
G04 #@! TO.N,C*
X126247500Y-102310000D03*
G04 #@! TO.P,J5,12,Pin_12*
G04 #@! TO.N,D*
X128787500Y-102310000D03*
G04 #@! TO.P,J5,13,Pin_13*
G04 #@! TO.N,CLK*
X126247500Y-104850000D03*
G04 #@! TO.P,J5,14,Pin_14*
G04 #@! TO.N,LAT*
X128787500Y-104850000D03*
G04 #@! TO.P,J5,15,Pin_15*
G04 #@! TO.N,OE*
X126247500Y-107390000D03*
G04 #@! TO.P,J5,16,Pin_16*
G04 #@! TO.N,GND*
X128787500Y-107390000D03*
G04 #@! TD*
D15*
G04 #@! TO.P,REF\u002A\u002A,1*
G04 #@! TO.N,N/C*
X203900000Y-79000000D03*
X201500000Y-76600000D03*
X199802944Y-80697056D03*
X201500000Y-81400000D03*
X203197056Y-77302944D03*
X203197056Y-80697056D03*
D16*
X201500000Y-79000000D03*
D15*
X199100000Y-79000000D03*
X199802944Y-77302944D03*
G04 #@! TD*
D10*
G04 #@! TO.P,J7,1,Pin_1*
G04 #@! TO.N,+5V*
X180475000Y-121000000D03*
D11*
G04 #@! TO.P,J7,2,Pin_2*
G04 #@! TO.N,Net-(D2-Pad2)*
X183015000Y-121000000D03*
G04 #@! TO.P,J7,3,Pin_3*
G04 #@! TO.N,GND*
X185555000Y-121000000D03*
G04 #@! TD*
D14*
G04 #@! TO.P,J1,1,Pin_1*
G04 #@! TO.N,GND*
X202000000Y-96920000D03*
G04 #@! TO.P,J1,2,Pin_2*
G04 #@! TO.N,+5V*
X202000000Y-102000000D03*
G04 #@! TD*
D19*
G04 #@! TO.P,R4,1*
G04 #@! TO.N,LIGHT*
X135300000Y-106500000D03*
G04 #@! TO.P,R4,2*
G04 #@! TO.N,GND*
X138700000Y-106500000D03*
G04 #@! TD*
D15*
G04 #@! TO.P,REF\u002A\u002A,1*
G04 #@! TO.N,N/C*
X126500000Y-81400000D03*
X124802944Y-77302944D03*
X128197056Y-80697056D03*
X124100000Y-79000000D03*
D16*
X126500000Y-79000000D03*
D15*
X126500000Y-76600000D03*
X128197056Y-77302944D03*
X128900000Y-79000000D03*
X124802944Y-80697056D03*
G04 #@! TD*
G04 #@! TO.P,REF\u002A\u002A,1*
G04 #@! TO.N,N/C*
X128197056Y-117302944D03*
X124100000Y-119000000D03*
X126500000Y-121400000D03*
X126500000Y-116600000D03*
D16*
X126500000Y-119000000D03*
D15*
X124802944Y-120697056D03*
X128900000Y-119000000D03*
X128197056Y-120697056D03*
X124802944Y-117302944D03*
G04 #@! TD*
D20*
G04 #@! TO.N,+5V*
X185500000Y-86500000D03*
D21*
G04 #@! TO.N,GND*
X183000000Y-89000000D03*
D22*
X145500000Y-88500000D03*
X149870707Y-106605500D03*
D21*
X188500000Y-91000000D03*
X175824500Y-83000000D03*
X175824500Y-78000000D03*
D22*
X161000000Y-89000000D03*
G04 #@! TO.N,+3V3*
X137000000Y-112500000D03*
X139000000Y-103500000D03*
D20*
X170500000Y-91500000D03*
D22*
X135629500Y-90629500D03*
G04 #@! TO.N,Net-(D1-Pad2)*
X195650000Y-91400000D03*
X195658847Y-86575500D03*
G04 #@! TO.N,NPX2*
X166500000Y-90000000D03*
X167000000Y-92500000D03*
G04 #@! TO.N,SDA*
X162500000Y-95500000D03*
G04 #@! TO.N,SCL*
X162500000Y-94000000D03*
G04 #@! TO.N,B*
X152000000Y-92500000D03*
G04 #@! TO.N,C*
X151000000Y-93500000D03*
G04 #@! TO.N,D*
X150500000Y-94500000D03*
G04 #@! TO.N,CLK*
X160500000Y-91000000D03*
G04 #@! TO.N,LAT*
X141500000Y-97500000D03*
G04 #@! TO.N,OE*
X142500000Y-98500000D03*
G04 #@! TO.N,BOOT*
X174261880Y-84325999D03*
X165995201Y-105004799D03*
G04 #@! TO.N,LIGHT*
X146500000Y-106054502D03*
G04 #@! TO.N,BUTTON*
X148500000Y-107000000D03*
X140500000Y-107500000D03*
G04 #@! TD*
D23*
G04 #@! TO.N,Net-(D1-Pad2)*
X195650000Y-91400000D02*
X195650000Y-86584347D01*
X195650000Y-86584347D02*
X195658847Y-86575500D01*
D24*
G04 #@! TO.N,NPX2*
X167000000Y-90500000D02*
X167000000Y-92500000D01*
X166500000Y-90000000D02*
X167000000Y-90500000D01*
G04 #@! TO.N,SDA*
X158500000Y-99500000D02*
X158500000Y-121000000D01*
X162500000Y-95500000D02*
X158500000Y-99500000D01*
G04 #@! TO.N,SCL*
X162500000Y-94000000D02*
X155960000Y-100540000D01*
X155960000Y-100540000D02*
X155960000Y-121000000D01*
G04 #@! TO.N,B*
X135864310Y-92500000D02*
X128787500Y-99576810D01*
X128787500Y-99576810D02*
X128787500Y-99770000D01*
X152000000Y-92500000D02*
X135864310Y-92500000D01*
G04 #@! TO.N,C*
X127500000Y-101057500D02*
X126247500Y-102310000D01*
X151000000Y-93500000D02*
X135500000Y-93500000D01*
X129404310Y-101057500D02*
X127500000Y-101057500D01*
X135500000Y-93500000D02*
X130500000Y-98500000D01*
X130500000Y-99961810D02*
X129404310Y-101057500D01*
X130500000Y-98500000D02*
X130500000Y-99961810D01*
G04 #@! TO.N,D*
X136597500Y-94500000D02*
X128787500Y-102310000D01*
X150500000Y-94500000D02*
X136597500Y-94500000D01*
G04 #@! TO.N,CLK*
X129084201Y-96055000D02*
X124945000Y-96055000D01*
X135234201Y-89905000D02*
X129084201Y-96055000D01*
X124500000Y-103102500D02*
X126247500Y-104850000D01*
X124500000Y-96500000D02*
X124500000Y-103102500D01*
X124945000Y-96055000D02*
X124500000Y-96500000D01*
X159405000Y-89905000D02*
X135234201Y-89905000D01*
X160500000Y-91000000D02*
X159405000Y-89905000D01*
G04 #@! TO.N,LAT*
X141500000Y-97500000D02*
X136137500Y-97500000D01*
X136137500Y-97500000D02*
X128787500Y-104850000D01*
G04 #@! TO.N,OE*
X129963765Y-106036235D02*
X127536235Y-106036235D01*
X127500000Y-106137500D02*
X126247500Y-107390000D01*
X127536235Y-106036235D02*
X127500000Y-106000000D01*
X142500000Y-98500000D02*
X137500000Y-98500000D01*
X127500000Y-106000000D02*
X127500000Y-106137500D01*
X137500000Y-98500000D02*
X129963765Y-106036235D01*
G04 #@! TO.N,BOOT*
X174261880Y-84325999D02*
X174275708Y-84339827D01*
X174275708Y-96724292D02*
X165995201Y-105004799D01*
X174275708Y-84339827D02*
X174275708Y-96724292D01*
G04 #@! TO.N,LIGHT*
X145870498Y-105425000D02*
X136375000Y-105425000D01*
X146500000Y-106054502D02*
X145870498Y-105425000D01*
X136375000Y-105425000D02*
X135300000Y-106500000D01*
G04 #@! TO.N,BUTTON*
X148500000Y-107000000D02*
X148000000Y-107500000D01*
X148000000Y-107500000D02*
X140500000Y-107500000D01*
G04 #@! TD*
M02*
